<svg width="263" height="200" viewBox="0 0 263 200" fill="none" xmlns="http://www.w3.org/2000/svg">
<path d="M263 175.836H0V175.967H263V175.836Z" fill="#EBEBEB"/>
<path d="M233.486 183.415H201.984V183.547H233.486V183.415Z" fill="#EBEBEB"/>
<path d="M178.261 180.569H150.609V180.701H178.261V180.569Z" fill="#EBEBEB"/>
<path d="M199.138 183.352H190.538V183.483H199.138V183.352Z" fill="#EBEBEB"/>
<path d="M55.1141 180.506H29.5137V180.637H55.1141V180.506Z" fill="#EBEBEB"/>
<path d="M62.9359 180.506H57.4497V180.637H62.9359V180.506Z" fill="#EBEBEB"/>
<path d="M106.426 181.637H88.7261V181.768H106.426V181.637Z" fill="#EBEBEB"/>
<path d="M124.662 152.376H23.0968C22.3012 152.374 21.5386 152.057 20.9765 151.494C20.4143 150.931 20.0986 150.168 20.0986 149.372V6.60021C20.1056 5.80912 20.4243 5.0527 20.9857 4.49527C21.5471 3.93784 22.3057 3.6244 23.0968 3.62305H124.662C125.459 3.62305 126.223 3.93948 126.786 4.50274C127.349 5.066 127.666 5.82994 127.666 6.62651V149.372C127.666 150.169 127.349 150.933 126.786 151.496C126.223 152.059 125.459 152.376 124.662 152.376ZM23.0968 3.72825C22.3361 3.72964 21.6069 4.03284 21.0695 4.57128C20.532 5.10973 20.2301 5.83943 20.2301 6.60021V149.372C20.2301 150.133 20.532 150.863 21.0695 151.401C21.6069 151.94 22.3361 152.243 23.0968 152.244H124.662C125.423 152.243 126.153 151.94 126.691 151.402C127.23 150.863 127.533 150.134 127.534 149.372V6.60021C127.533 5.83894 127.23 5.10926 126.691 4.57096C126.153 4.03266 125.423 3.72964 124.662 3.72825H23.0968Z" fill="#EBEBEB"/>
<path d="M238.441 152.376H136.871C136.075 152.374 135.311 152.058 134.748 151.495C134.185 150.932 133.869 150.169 133.867 149.372V6.60021C133.875 5.80864 134.195 5.05223 134.758 4.49494C135.32 3.93765 136.079 3.62439 136.871 3.62305H238.441C239.231 3.62578 239.989 3.93983 240.549 4.49712C241.109 5.0544 241.427 5.81002 241.434 6.60021V149.372C241.434 150.167 241.119 150.929 240.558 151.492C239.997 152.055 239.236 152.373 238.441 152.376ZM136.871 3.72825C136.109 3.72964 135.38 4.03266 134.841 4.57096C134.303 5.10926 134 5.83894 133.999 6.60021V149.372C134 150.134 134.303 150.863 134.841 151.402C135.38 151.94 136.109 152.243 136.871 152.244H238.441C239.202 152.243 239.932 151.94 240.47 151.402C241.009 150.863 241.312 150.134 241.313 149.372V6.60021C241.312 5.83894 241.009 5.10926 240.47 4.57096C239.932 4.03266 239.202 3.72964 238.441 3.72825H136.871Z" fill="#EBEBEB"/>
<path d="M238.336 123.183H24.6641V126.875H238.336V123.183Z" fill="#EBEBEB"/>
<path d="M59.2697 104.42L203.725 104.42V17.2722L59.2697 17.2722V104.42Z" fill="#F0F0F0"/>
<path d="M199.822 100.518V21.1758L63.1727 21.1758V100.518L199.822 100.518Z" fill="#FAFAFA"/>
<path d="M177.694 100.518L152.793 21.1758H128.134L153.035 100.518H177.694Z" fill="white"/>
<path d="M145.392 100.518L120.491 21.1758H110.875L135.776 100.518H145.392Z" fill="white"/>
<path d="M63.6724 100.518L63.6724 21.1758H63.1779L63.1779 100.518H63.6724Z" fill="#E6E6E6"/>
<path d="M236.521 126.875H26.4736V175.835H236.521V126.875Z" fill="#F5F5F5"/>
<path d="M150.341 126.875H136.197L112.659 175.835H126.803L150.341 126.875Z" fill="#FAFAFA"/>
<path d="M215.176 126.875H201.032L177.494 175.835H191.638L215.176 126.875Z" fill="#FAFAFA"/>
<path d="M130.884 126.875H116.74L93.207 175.835H107.351L130.884 126.875Z" fill="#FAFAFA"/>
<path d="M45.9827 119.869L41.5538 114.74V105.482C41.6398 105.48 41.7214 105.444 41.7813 105.382C41.8412 105.32 41.8747 105.237 41.8746 105.151C41.8746 105.062 41.8392 104.976 41.776 104.913C41.7129 104.85 41.6273 104.814 41.538 104.814H36.8198C36.7305 104.814 36.6449 104.85 36.5817 104.913C36.5186 104.976 36.4831 105.062 36.4831 105.151C36.4831 105.237 36.5166 105.32 36.5764 105.382C36.6363 105.444 36.7179 105.48 36.804 105.482V114.74L32.3908 119.869C32.1404 120.158 31.9786 120.513 31.9247 120.892C31.8708 121.271 31.927 121.657 32.0868 122.005C32.2465 122.353 32.5029 122.647 32.8255 122.853C33.148 123.059 33.523 123.168 33.9057 123.167H44.4678C44.8505 123.168 45.2255 123.059 45.548 122.853C45.8706 122.647 46.127 122.353 46.2868 122.005C46.4465 121.657 46.5028 121.271 46.4489 120.892C46.3949 120.513 46.2331 120.158 45.9827 119.869Z" fill="#F5F5F5"/>
<path d="M158.778 119.868L154.349 114.724V95.2621C154.439 95.2621 154.524 95.2267 154.587 95.1635C154.651 95.1004 154.686 95.0148 154.686 94.9255C154.686 94.8362 154.651 94.7506 154.587 94.6875C154.524 94.6243 154.439 94.5889 154.349 94.5889H149.652C149.563 94.5889 149.477 94.6243 149.414 94.6875C149.351 94.7506 149.316 94.8362 149.316 94.9255C149.316 95.0148 149.351 95.1004 149.414 95.1635C149.477 95.2267 149.563 95.2621 149.652 95.2621V114.724L145.176 119.868C144.926 120.158 144.764 120.513 144.71 120.892C144.656 121.271 144.712 121.657 144.872 122.005C145.032 122.353 145.288 122.647 145.611 122.853C145.933 123.059 146.308 123.168 146.691 123.166H157.274C157.656 123.166 158.029 123.056 158.35 122.849C158.671 122.642 158.926 122.348 159.085 122C159.243 121.653 159.298 121.267 159.244 120.889C159.19 120.512 159.028 120.157 158.778 119.868Z" fill="#F5F5F5"/>
<path d="M112.043 123.157H75.3916L78.2846 86.5H112.043V123.157Z" fill="#E0E0E0"/>
<path d="M128.176 113.326H91.524L88.1997 86.5H124.851L128.176 113.326Z" fill="#F0F0F0"/>
<path d="M128.176 113.326H91.5239L102.97 123.183H139.621L128.176 113.326Z" fill="#F0F0F0"/>
<path d="M93.1441 109.433L90.7876 90.4127C90.751 90.1872 90.7647 89.9564 90.8279 89.7369C90.8911 89.5174 91.0021 89.3146 91.1529 89.1431C91.3038 88.9716 91.4908 88.8357 91.7005 88.7451C91.9102 88.6545 92.1373 88.6114 92.3656 88.619H121.227C121.72 88.6346 122.192 88.8227 122.56 89.1506C122.928 89.4784 123.169 89.9251 123.242 90.4127L125.598 109.449C125.634 109.674 125.62 109.904 125.556 110.123C125.493 110.342 125.381 110.544 125.231 110.715C125.08 110.885 124.893 111.021 124.684 111.111C124.475 111.202 124.248 111.245 124.02 111.237H95.1587C94.6644 111.221 94.1915 111.031 93.8231 110.701C93.4547 110.372 93.2143 109.922 93.1441 109.433Z" fill="#E0E0E0"/>
<path d="M189.802 123.156H220.084L217.696 92.8799H189.802V123.156Z" fill="#E0E0E0"/>
<path d="M176.479 115.04H206.755L209.506 92.8799H179.224L176.479 115.04Z" fill="#F0F0F0"/>
<path d="M176.478 115.041H206.755L197.303 123.183H167.021L176.478 115.041Z" fill="#F0F0F0"/>
<path d="M205.419 111.826L207.37 96.0938C207.4 95.9082 207.388 95.7184 207.336 95.5379C207.283 95.3574 207.192 95.1907 207.068 95.0495C206.944 94.9084 206.79 94.7964 206.618 94.7214C206.446 94.6464 206.259 94.6103 206.071 94.6158H182.228C181.821 94.6265 181.431 94.7807 181.126 95.0512C180.822 95.3217 180.624 95.691 180.565 96.0938L178.614 111.826C178.585 112.012 178.596 112.201 178.648 112.381C178.7 112.561 178.791 112.728 178.915 112.869C179.038 113.01 179.191 113.122 179.363 113.197C179.534 113.273 179.72 113.309 179.908 113.305H203.757C204.164 113.294 204.554 113.14 204.858 112.869C205.162 112.599 205.361 112.229 205.419 111.826Z" fill="#E0E0E0"/>
<path d="M131.5 199.589C187.825 199.589 233.486 196.923 233.486 193.635C233.486 190.346 187.825 187.681 131.5 187.681C75.1744 187.681 29.5137 190.346 29.5137 193.635C29.5137 196.923 75.1744 199.589 131.5 199.589Z" fill="#F5F5F5"/>
<path opacity="0.2" d="M45.7617 40.6112L73.9869 148.441C74.8545 151.72 76.9848 154.522 79.912 156.235C82.8393 157.948 86.3256 158.433 89.6091 157.583C92.8878 156.715 95.6899 154.585 97.4029 151.658C99.1159 148.731 99.6005 145.244 98.751 141.961L70.5258 34.1309L45.7617 40.6112Z" fill="#407BFF"/>
<path d="M88.8097 154.532C86.3358 155.176 83.7074 154.813 81.5007 153.522C79.294 152.232 77.6891 150.119 77.0378 147.647L55.7559 66.2744C55.7559 66.2744 60.0638 63.3341 65.0871 63.8338C68.3505 64.0672 71.6236 63.5415 74.6498 62.2979L95.6898 142.776C96.3308 145.247 95.9667 147.871 94.6773 150.075C93.3878 152.278 91.278 153.881 88.8097 154.532Z" fill="#407BFF"/>
<path opacity="0.2" d="M75.4911 112.568C75.4911 113.014 75.3588 113.451 75.1108 113.822C74.8629 114.193 74.5104 114.482 74.0981 114.653C73.6858 114.824 73.2321 114.868 72.7943 114.781C72.3566 114.694 71.9545 114.479 71.639 114.164C71.3234 113.848 71.1085 113.446 71.0214 113.008C70.9343 112.571 70.979 112.117 71.1498 111.705C71.3206 111.292 71.6098 110.94 71.9809 110.692C72.352 110.444 72.7883 110.312 73.2346 110.312C73.8326 110.313 74.4058 110.551 74.8287 110.974C75.2515 111.397 75.4897 111.97 75.4911 112.568Z" fill="black"/>
<path d="M74.2444 112.568C74.2455 112.768 74.1871 112.964 74.0768 113.131C73.9665 113.297 73.8091 113.428 73.6247 113.505C73.4402 113.582 73.237 113.603 73.0407 113.565C72.8445 113.526 72.664 113.43 72.5223 113.289C72.3805 113.148 72.2838 112.968 72.2444 112.772C72.205 112.576 72.2247 112.373 72.301 112.188C72.3773 112.003 72.5067 111.845 72.6729 111.734C72.8391 111.623 73.0345 111.563 73.2345 111.563C73.5015 111.563 73.7575 111.669 73.9468 111.857C74.136 112.046 74.243 112.301 74.2444 112.568Z" fill="#407BFF"/>
<path opacity="0.2" d="M76.0805 88.4816C76.0816 88.7473 76.0037 89.0073 75.8567 89.2287C75.7097 89.4501 75.5003 89.6228 75.255 89.725C75.0097 89.8272 74.7395 89.8542 74.4789 89.8026C74.2182 89.751 73.9787 89.6232 73.7908 89.4353C73.6029 89.2474 73.4751 89.0079 73.4235 88.7472C73.3719 88.4865 73.3989 88.2164 73.5011 87.9711C73.6032 87.7258 73.776 87.5164 73.9973 87.3694C74.2187 87.2224 74.4788 87.1445 74.7445 87.1455C75.0984 87.1469 75.4374 87.2881 75.6877 87.5384C75.9379 87.7886 76.0792 88.1276 76.0805 88.4816Z" fill="black"/>
<path d="M75.3389 88.4821C75.3399 88.6011 75.3055 88.7178 75.24 88.8172C75.1746 88.9166 75.081 88.9943 74.9712 89.0403C74.8614 89.0864 74.7404 89.0987 74.6236 89.0757C74.5068 89.0527 74.3995 88.9955 74.3153 88.9113C74.2311 88.8272 74.1739 88.7198 74.1509 88.603C74.1279 88.4862 74.1403 88.3652 74.1863 88.2555C74.2323 88.1457 74.31 88.0521 74.4094 87.9866C74.5088 87.9211 74.6255 87.8867 74.7445 87.8877C74.9017 87.8891 75.0521 87.9522 75.1633 88.0633C75.2745 88.1745 75.3375 88.3249 75.3389 88.4821Z" fill="#407BFF"/>
<path opacity="0.2" d="M81.3984 140.473C82.9961 140.473 84.2914 139.177 84.2914 137.58C84.2914 135.982 82.9961 134.687 81.3984 134.687C79.8006 134.687 78.5054 135.982 78.5054 137.58C78.5054 139.177 79.8006 140.473 81.3984 140.473Z" fill="black"/>
<path d="M81.3985 138.873C82.1131 138.873 82.6924 138.294 82.6924 137.579C82.6924 136.864 82.1131 136.285 81.3985 136.285C80.6838 136.285 80.1045 136.864 80.1045 137.579C80.1045 138.294 80.6838 138.873 81.3985 138.873Z" fill="#407BFF"/>
<path opacity="0.2" d="M84.2387 126.381C85.1479 126.381 85.885 125.644 85.885 124.734C85.885 123.825 85.1479 123.088 84.2387 123.088C83.3294 123.088 82.5923 123.825 82.5923 124.734C82.5923 125.644 83.3294 126.381 84.2387 126.381Z" fill="black"/>
<path d="M84.9699 124.734C84.9699 124.88 84.9265 125.023 84.8454 125.144C84.7642 125.265 84.6489 125.36 84.5141 125.415C84.3792 125.471 84.2309 125.485 84.0879 125.456C83.9449 125.427 83.8137 125.357 83.7109 125.253C83.6081 125.15 83.5384 125.018 83.5106 124.875C83.4828 124.732 83.4981 124.583 83.5546 124.449C83.6112 124.315 83.7064 124.2 83.8282 124.12C83.95 124.039 84.0929 123.997 84.2387 123.998C84.4331 123.999 84.6191 124.078 84.756 124.216C84.893 124.354 84.9699 124.54 84.9699 124.734Z" fill="#407BFF"/>
<path opacity="0.2" d="M89.1516 147.578C90.2178 147.578 91.082 146.713 91.082 145.647C91.082 144.581 90.2178 143.717 89.1516 143.717C88.0855 143.717 87.2212 144.581 87.2212 145.647C87.2212 146.713 88.0855 147.578 89.1516 147.578Z" fill="black"/>
<path d="M90.0143 145.642C90.0143 145.813 89.9637 145.979 89.869 146.121C89.7742 146.263 89.6394 146.374 89.4818 146.439C89.3242 146.504 89.1507 146.521 88.9834 146.488C88.8161 146.455 88.6624 146.373 88.5417 146.252C88.4211 146.131 88.3389 145.978 88.3056 145.81C88.2724 145.643 88.2894 145.469 88.3547 145.312C88.42 145.154 88.5306 145.019 88.6724 144.925C88.8143 144.83 88.9811 144.779 89.1517 144.779C89.3805 144.779 89.5999 144.87 89.7617 145.032C89.9235 145.194 90.0143 145.413 90.0143 145.642Z" fill="#407BFF"/>
<path opacity="0.2" d="M76.7431 99.8122C76.7431 100.259 76.6107 100.695 76.3628 101.066C76.1148 101.437 75.7624 101.726 75.3501 101.897C74.9377 102.068 74.484 102.112 74.0463 102.025C73.6086 101.938 73.2065 101.723 72.8909 101.408C72.5753 101.092 72.3604 100.69 72.2733 100.252C72.1863 99.8147 72.231 99.361 72.4018 98.9487C72.5725 98.5363 72.8618 98.1839 73.2329 97.936C73.6039 97.688 74.0402 97.5557 74.4865 97.5557C75.085 97.5557 75.659 97.7934 76.0821 98.2166C76.5053 98.6398 76.7431 99.2137 76.7431 99.8122Z" fill="black"/>
<path d="M76.0803 99.8124C76.0803 100.124 75.9878 100.43 75.8144 100.689C75.641 100.949 75.3945 101.151 75.1062 101.27C74.8179 101.39 74.5006 101.421 74.1945 101.36C73.8884 101.299 73.6072 101.149 73.3865 100.928C73.1658 100.708 73.0155 100.426 72.9546 100.12C72.8938 99.8141 72.925 99.4968 73.0444 99.2085C73.1639 98.9202 73.3661 98.6737 73.6256 98.5003C73.8851 98.3269 74.1902 98.2344 74.5023 98.2344C74.9208 98.2344 75.3222 98.4006 75.6181 98.6966C75.9141 98.9925 76.0803 99.3939 76.0803 99.8124Z" fill="#407BFF"/>
<path opacity="0.2" d="M81.8664 108.881C81.8664 109.193 81.7739 109.498 81.6005 109.757C81.4271 110.017 81.1807 110.219 80.8923 110.339C80.604 110.458 80.2867 110.489 79.9806 110.428C79.6745 110.368 79.3933 110.217 79.1726 109.997C78.9519 109.776 78.8017 109.495 78.7408 109.189C78.6799 108.882 78.7111 108.565 78.8306 108.277C78.95 107.989 79.1523 107.742 79.4118 107.569C79.6713 107.395 79.9763 107.303 80.2884 107.303C80.707 107.303 81.1083 107.469 81.4043 107.765C81.7002 108.061 81.8664 108.462 81.8664 108.881Z" fill="black"/>
<path d="M81.3983 108.88C81.4025 109.105 81.3397 109.326 81.218 109.514C81.0964 109.703 80.9212 109.851 80.715 109.94C80.5087 110.029 80.2807 110.054 80.06 110.013C79.8392 109.972 79.6358 109.866 79.4755 109.709C79.3152 109.551 79.2054 109.35 79.16 109.13C79.1147 108.91 79.1358 108.682 79.2207 108.474C79.3057 108.266 79.4506 108.088 79.637 107.963C79.8234 107.837 80.0429 107.771 80.2674 107.771C80.5638 107.77 80.8483 107.887 81.0597 108.094C81.2712 108.302 81.3928 108.584 81.3983 108.88Z" fill="#407BFF"/>
<path d="M65.7356 46.9846L56.2354 49.4717L64.7608 82.0383L74.2611 79.5512L65.7356 46.9846Z" fill="white"/>
<path d="M69.1998 16.2516L68.6909 16.3848L69.7007 20.2419L70.2095 20.1087L69.1998 16.2516Z" fill="#407BFF"/>
<path d="M68.0431 13.9006L65.9075 5.75284C65.768 5.21855 65.4554 4.74552 65.0186 4.40768C64.5818 4.06984 64.0454 3.88623 63.4932 3.88554C63.2782 3.88469 63.0641 3.913 62.8567 3.9697L58.0544 5.22684L57.9229 4.70084L62.7252 3.4437C62.9757 3.37656 63.2339 3.34295 63.4932 3.34376C64.1622 3.34425 64.8121 3.56652 65.3413 3.97578C65.8705 4.38504 66.249 4.9582 66.4177 5.60556L68.5218 13.7533L68.0431 13.9006Z" fill="#407BFF"/>
<path d="M38.003 11.8321L63.1912 5.23822C63.4932 5.16343 63.8126 5.21062 64.0801 5.36955C64.3476 5.52848 64.5418 5.78638 64.6206 6.08741L71.5142 32.4205L44.0362 39.6139L37.1425 13.2808C37.1028 13.1291 37.0936 12.9711 37.1155 12.8159C37.1373 12.6606 37.1898 12.5113 37.2699 12.3765C37.3499 12.2418 37.456 12.1242 37.5818 12.0308C37.7077 11.9373 37.8508 11.8698 38.003 11.8321Z" fill="#407BFF"/>
<path opacity="0.2" d="M51.279 8.35136L49.9204 8.70703L57.1138 36.1851L58.4724 35.8294L51.279 8.35136Z" fill="black"/>
<path opacity="0.2" d="M56.4194 7.30026L55.0571 7.65137L62.1581 35.2032L63.5204 34.8521L56.4194 7.30026Z" fill="black"/>
<path opacity="0.2" d="M61.4509 5.69316L60.0923 6.04883L67.2856 33.5269L68.6443 33.1712L61.4509 5.69316Z" fill="black"/>
<path opacity="0.2" d="M46.1853 9.68632L44.8267 10.042L52.02 37.52L53.3787 37.1644L46.1853 9.68632Z" fill="black"/>
<path opacity="0.2" d="M41.1033 11.0203L39.7446 11.376L46.938 38.854L48.2966 38.4983L41.1033 11.0203Z" fill="black"/>
<path d="M71.0467 30.5482L43.5636 37.7429C42.6278 37.9879 42.0677 38.9452 42.3127 39.881L43.2678 43.5295C43.5128 44.4653 44.4701 45.0254 45.4059 44.7804L72.889 37.5857C73.8249 37.3407 74.3849 36.3834 74.1399 35.4476L73.1848 31.7991C72.9398 30.8633 71.9826 30.3033 71.0467 30.5482Z" fill="#407BFF"/>
<path d="M231.914 71.1416L231.627 74.6963L232.151 74.7387L232.438 71.184L231.914 71.1416Z" fill="#407BFF"/>
<path d="M233.102 56.7136L232.25 67.2676L232.774 67.3099L233.627 56.756L233.102 56.7136Z" fill="#407BFF"/>
<path d="M147.359 13.3652L138.054 128.449L207.212 134.035L226.874 117.319L234.706 20.4242L147.359 13.3652Z" fill="white"/>
<path d="M207.212 134.519H207.17L138.017 128.928C137.953 128.923 137.891 128.906 137.834 128.877C137.777 128.847 137.726 128.807 137.685 128.758C137.644 128.709 137.613 128.652 137.594 128.591C137.575 128.53 137.569 128.465 137.575 128.402L146.875 13.3286C146.88 13.2649 146.898 13.203 146.927 13.1463C146.957 13.0896 146.997 13.0392 147.046 12.9981C147.095 12.9571 147.151 12.9261 147.212 12.907C147.273 12.8878 147.337 12.881 147.401 12.8867L234.743 19.9299C234.807 19.9345 234.869 19.9519 234.926 19.981C234.984 20.0101 235.034 20.0504 235.075 20.0994C235.117 20.1485 235.148 20.2053 235.166 20.2665C235.185 20.3278 235.192 20.3922 235.185 20.4559L227.353 117.345C227.349 117.408 227.331 117.469 227.302 117.526C227.274 117.582 227.233 117.631 227.185 117.671L207.523 134.393C207.438 134.471 207.328 134.516 207.212 134.519ZM138.575 128.007L207.049 133.546L226.411 117.082L234.186 20.8662L147.806 13.8861L138.575 128.007Z" fill="#407BFF"/>
<path opacity="0.2" d="M205.256 116.935L207.213 134.035L226.874 117.319L205.256 116.935Z" fill="#407BFF"/>
<path d="M208.68 115.847L207.212 134.036L226.874 117.319L208.68 115.847Z" fill="white"/>
<path d="M207.212 134.518C207.136 134.519 207.06 134.501 206.991 134.466C206.906 134.422 206.836 134.355 206.789 134.271C206.742 134.188 206.721 134.093 206.728 133.998L208.201 115.809C208.206 115.745 208.223 115.683 208.252 115.626C208.28 115.569 208.321 115.518 208.37 115.477C208.418 115.436 208.474 115.405 208.534 115.386C208.595 115.367 208.659 115.36 208.722 115.367L226.911 116.834C227.006 116.842 227.097 116.877 227.172 116.936C227.246 116.995 227.302 117.075 227.332 117.166C227.362 117.258 227.365 117.357 227.338 117.451C227.312 117.545 227.259 117.629 227.185 117.692L207.523 134.413C207.436 134.485 207.325 134.523 207.212 134.518ZM209.122 116.366L207.77 132.914L225.654 117.702L209.122 116.366Z" fill="#407BFF"/>
<path d="M189.855 33.333H189.702C189.257 33.2968 188.844 33.0854 188.554 32.7453C188.264 32.4051 188.121 31.9639 188.156 31.5183L188.513 27.1052C188.531 26.8841 188.592 26.6687 188.693 26.4713C188.794 26.2738 188.932 26.0981 189.101 25.9543C189.27 25.8104 189.465 25.7012 189.676 25.6329C189.887 25.5646 190.11 25.5385 190.331 25.5561C190.552 25.5737 190.767 25.6347 190.964 25.7356C191.162 25.8364 191.338 25.9752 191.481 26.144C191.625 26.3127 191.735 26.5082 191.803 26.7191C191.871 26.9301 191.897 27.1524 191.88 27.3734L191.522 31.7866C191.487 32.2057 191.296 32.5966 190.988 32.8826C190.679 33.1687 190.275 33.3293 189.855 33.333Z" fill="#407BFF"/>
<path d="M192.416 29.0983H192.268L187.855 28.7407C187.626 28.735 187.4 28.6826 187.191 28.5867C186.983 28.4907 186.796 28.3533 186.642 28.1827C186.489 28.0122 186.372 27.8121 186.298 27.5947C186.224 27.3773 186.196 27.1472 186.214 26.9184C186.232 26.6896 186.297 26.4669 186.404 26.2639C186.511 26.061 186.659 25.882 186.837 25.738C187.016 25.594 187.222 25.4879 187.444 25.4263C187.665 25.3646 187.896 25.3487 188.123 25.3795L192.516 25.7162C192.94 25.7615 193.332 25.9662 193.612 26.289C193.892 26.6118 194.039 27.0287 194.024 27.4557C194.009 27.8827 193.832 28.288 193.53 28.5899C193.227 28.8918 192.822 29.0679 192.395 29.0826L192.416 29.0983Z" fill="#407BFF"/>
<path d="M186.025 80.6724H185.878C185.657 80.6551 185.442 80.5945 185.244 80.4939C185.047 80.3932 184.871 80.2547 184.728 80.0861C184.584 79.9175 184.475 79.7222 184.407 79.5114C184.339 79.3006 184.313 79.0785 184.331 78.8577L184.689 74.4446C184.695 74.2151 184.747 73.9892 184.843 73.7807C184.939 73.5721 185.076 73.3854 185.247 73.2317C185.417 73.0781 185.617 72.9609 185.835 72.8872C186.052 72.8135 186.282 72.7849 186.511 72.8032C186.74 72.8215 186.963 72.8862 187.166 72.9934C187.369 73.1006 187.548 73.2481 187.692 73.4269C187.836 73.6056 187.942 73.8118 188.003 74.0329C188.065 74.254 188.081 74.4854 188.05 74.7128L187.692 79.126C187.658 79.5456 187.468 79.9371 187.159 80.2234C186.851 80.5096 186.446 80.6699 186.025 80.6724Z" fill="#407BFF"/>
<path d="M188.234 80.8511H188.082L183.668 80.4934C183.439 80.4869 183.214 80.4337 183.006 80.3373C182.798 80.2408 182.612 80.103 182.459 79.9323C182.306 79.7615 182.19 79.5615 182.117 79.3442C182.043 79.127 182.015 78.8972 182.034 78.6687C182.052 78.4403 182.117 78.218 182.225 78.0154C182.332 77.8129 182.479 77.6343 182.658 77.4905C182.836 77.3468 183.042 77.2409 183.263 77.1793C183.484 77.1177 183.715 77.1017 183.942 77.1323L188.355 77.49C188.78 77.5353 189.172 77.74 189.452 78.0628C189.732 78.3856 189.879 78.8025 189.863 79.2295C189.848 79.6565 189.671 80.0618 189.369 80.3637C189.067 80.6656 188.661 80.8417 188.234 80.8564V80.8511Z" fill="#407BFF"/>
<path d="M213.992 56.8917H213.845L209.432 56.5341C208.985 56.4978 208.572 56.2857 208.282 55.9444C207.992 55.603 207.849 55.1605 207.885 54.7141C207.922 54.2677 208.134 53.854 208.475 53.564C208.816 53.2739 209.259 53.1314 209.705 53.1677L214.119 53.5253C214.553 53.5597 214.957 53.7606 215.247 54.086C215.536 54.4115 215.689 54.8363 215.673 55.2717C215.657 55.7071 215.473 56.1194 215.159 56.4223C214.846 56.7251 214.428 56.8953 213.992 56.897V56.8917Z" fill="#407BFF"/>
<path d="M213.819 59.0958H213.666C213.445 59.0778 213.23 59.0165 213.032 58.9154C212.835 58.8142 212.66 58.6751 212.516 58.5061C212.372 58.3371 212.264 58.1415 212.196 57.9304C212.128 57.7193 212.102 57.4968 212.12 57.2758L212.478 52.8627C212.535 52.4341 212.755 52.044 213.092 51.7728C213.429 51.5015 213.857 51.3699 214.288 51.405C214.719 51.4401 215.12 51.6392 215.409 51.9613C215.697 52.2834 215.851 52.7039 215.839 53.1362L215.486 57.5493C215.451 57.9685 215.26 58.3593 214.952 58.6453C214.643 58.9314 214.239 59.092 213.819 59.0958Z" fill="#407BFF"/>
<path d="M166.653 53.0679H166.505L162.092 52.7102C161.863 52.7037 161.638 52.6505 161.43 52.554C161.222 52.4576 161.036 52.3198 160.883 52.1491C160.73 51.9783 160.613 51.7783 160.54 51.561C160.467 51.3438 160.439 51.1139 160.458 50.8855C160.476 50.657 160.541 50.4348 160.648 50.2322C160.756 50.0297 160.903 49.8511 161.082 49.7073C161.26 49.5636 161.466 49.4577 161.687 49.3961C161.908 49.3345 162.139 49.3185 162.366 49.3491L166.779 49.7068C167.204 49.7524 167.596 49.9576 167.876 50.2809C168.155 50.6042 168.302 51.0216 168.286 51.4488C168.27 51.876 168.092 52.2813 167.789 52.5827C167.486 52.8842 167.08 53.0595 166.653 53.0732V53.0679Z" fill="#407BFF"/>
<path d="M162.065 54.9143H161.913C161.692 54.8964 161.476 54.8351 161.279 54.7339C161.082 54.6327 160.906 54.4937 160.763 54.3247C160.619 54.1557 160.51 53.96 160.442 53.7489C160.374 53.5378 160.348 53.3154 160.366 53.0943L160.724 48.6812C160.731 48.4521 160.784 48.2267 160.88 48.0188C160.977 47.8109 161.115 47.6248 161.285 47.4718C161.456 47.3189 161.656 47.2023 161.873 47.1292C162.091 47.0561 162.32 47.028 162.549 47.0466C162.777 47.0652 163 47.1301 163.202 47.2374C163.405 47.3446 163.583 47.492 163.727 47.6705C163.871 47.8491 163.977 48.055 164.038 48.2758C164.1 48.4965 164.116 48.7275 164.085 48.9547L163.733 53.3678C163.697 53.787 163.507 54.1778 163.198 54.4639C162.89 54.7499 162.486 54.9105 162.065 54.9143Z" fill="#407BFF"/>
<path d="M174.169 38.3922C173.922 38.3959 173.677 38.3445 173.452 38.2417C173.227 38.1389 173.028 37.9872 172.87 37.7978L169.998 34.4261C169.707 34.085 169.565 33.6427 169.601 33.1963C169.637 32.7499 169.849 32.3361 170.19 32.046C170.531 31.7558 170.973 31.613 171.419 31.649C171.866 31.685 172.28 31.8969 172.57 32.238L175.442 35.6149C175.731 35.9562 175.873 36.3982 175.836 36.8439C175.8 37.2896 175.588 37.7027 175.247 37.9924C174.947 38.2497 174.564 38.3915 174.169 38.3922Z" fill="#407BFF"/>
<path d="M169.614 36.457C169.268 36.4597 168.929 36.3557 168.644 36.1594C168.358 35.963 168.14 35.6837 168.019 35.3593C167.898 35.0349 167.88 34.6811 167.966 34.3459C168.053 34.0106 168.241 33.7101 168.504 33.4851L171.881 30.6132C172.048 30.458 172.245 30.3383 172.46 30.2613C172.674 30.1843 172.902 30.1515 173.13 30.1651C173.358 30.1786 173.58 30.2381 173.784 30.3401C173.988 30.442 174.169 30.5841 174.317 30.758C174.465 30.9319 174.575 31.1339 174.643 31.3518C174.71 31.5697 174.733 31.7989 174.709 32.0258C174.685 32.2526 174.616 32.4723 174.505 32.6716C174.394 32.8709 174.244 33.0456 174.064 33.1853L170.692 36.052C170.391 36.3085 170.009 36.4517 169.614 36.457Z" fill="#407BFF"/>
<path d="M204.935 74.5758C204.688 74.5766 204.444 74.5239 204.22 74.4213C203.995 74.3187 203.796 74.1686 203.635 73.9814L200.769 70.6097C200.625 70.4408 200.516 70.2453 200.448 70.0343C200.38 69.8233 200.354 69.6009 200.372 69.3799C200.39 69.1589 200.451 68.9435 200.552 68.7461C200.653 68.5488 200.792 68.3732 200.961 68.2296C201.13 68.0859 201.325 67.9769 201.536 67.9088C201.747 67.8407 201.969 67.8148 202.19 67.8326C202.411 67.8504 202.627 67.9116 202.824 68.0127C203.022 68.1137 203.197 68.2527 203.341 68.4216L206.192 71.7932C206.398 72.0386 206.53 72.3374 206.573 72.6548C206.616 72.9723 206.568 73.2955 206.435 73.5868C206.301 73.8781 206.088 74.1257 205.82 74.3007C205.552 74.4758 205.239 74.5712 204.919 74.5758H204.935Z" fill="#407BFF"/>
<path d="M203.251 76.0066C203.004 76.0104 202.759 75.959 202.535 75.8562C202.31 75.7534 202.111 75.6017 201.952 75.4123C201.808 75.2439 201.699 75.0488 201.63 74.838C201.562 74.6273 201.536 74.4051 201.553 74.1842C201.571 73.9633 201.632 73.748 201.733 73.5508C201.834 73.3535 201.973 73.1782 202.142 73.0347L205.513 70.168C205.854 69.8779 206.297 69.7351 206.743 69.7711C207.189 69.8071 207.603 70.0189 207.893 70.36C208.184 70.7011 208.326 71.1435 208.29 71.5899C208.254 72.0362 208.043 72.45 207.701 72.7402L204.33 75.6069C204.029 75.8642 203.647 76.0059 203.251 76.0066Z" fill="#407BFF"/>
<path d="M204.519 40.8488C204.173 40.8504 203.835 40.7457 203.551 40.5489C203.267 40.3521 203.05 40.0728 202.929 39.7486C202.809 39.4245 202.791 39.0711 202.877 38.7364C202.964 38.4016 203.152 38.1016 203.415 37.8769L206.786 35.005C207.127 34.7148 207.57 34.572 208.016 34.608C208.462 34.644 208.876 34.8559 209.166 35.197C209.457 35.538 209.599 35.9804 209.563 36.4268C209.527 36.8731 209.316 37.2869 208.974 37.5771L205.603 40.4438C205.3 40.7014 204.917 40.8447 204.519 40.8488Z" fill="#407BFF"/>
<path d="M209.348 39.6658C209.102 39.6681 208.858 39.6159 208.635 39.5132C208.411 39.4105 208.213 39.2596 208.054 39.0714L205.14 35.7103C204.997 35.5414 204.888 35.3459 204.819 35.1349C204.751 34.9238 204.725 34.7015 204.743 34.4805C204.761 34.2594 204.822 34.0441 204.923 33.8467C205.024 33.6494 205.163 33.4738 205.332 33.3301C205.501 33.1865 205.697 33.0775 205.908 33.0094C206.119 32.9413 206.341 32.9154 206.562 32.9332C206.783 32.951 206.998 33.0122 207.196 33.1133C207.393 33.2143 207.569 33.3532 207.712 33.5221L210.579 36.8938C210.789 37.1378 210.925 37.4371 210.971 37.756C211.016 38.075 210.969 38.4004 210.835 38.6934C210.701 38.9864 210.486 39.2347 210.215 39.409C209.944 39.5832 209.628 39.676 209.306 39.6763L209.348 39.6658Z" fill="#407BFF"/>
<path d="M168.32 71.6149C168.072 71.6186 167.828 71.5672 167.603 71.4644C167.378 71.3616 167.179 71.2099 167.02 71.0205C166.877 70.8518 166.768 70.6564 166.699 70.4454C166.631 70.2345 166.606 70.0122 166.624 69.7913C166.642 69.5704 166.703 69.3552 166.805 69.1582C166.906 68.9611 167.046 68.786 167.215 68.643L170.587 65.7763C170.754 65.6211 170.951 65.5014 171.165 65.4244C171.38 65.3474 171.608 65.3146 171.836 65.3282C172.063 65.3417 172.286 65.4012 172.49 65.5031C172.694 65.605 172.875 65.7472 173.023 65.9211C173.17 66.095 173.281 66.297 173.349 66.5149C173.416 66.7328 173.438 66.962 173.415 67.1889C173.391 67.4157 173.322 67.6354 173.211 67.8347C173.1 68.034 172.95 68.2087 172.77 68.3484L169.398 71.2151C169.098 71.474 168.715 71.616 168.32 71.6149Z" fill="#407BFF"/>
<path d="M169.777 73.3033C169.53 73.3056 169.285 73.2535 169.061 73.1508C168.836 73.0481 168.637 72.8972 168.478 72.7089L165.606 69.3373C165.315 68.9962 165.173 68.5538 165.209 68.1074C165.245 67.6611 165.456 67.2473 165.798 66.9571C166.139 66.6669 166.581 66.5242 167.027 66.5602C167.474 66.5962 167.888 66.808 168.178 67.1491L171.044 70.5208C171.189 70.6895 171.298 70.8851 171.367 71.0963C171.435 71.3075 171.462 71.5301 171.444 71.7514C171.426 71.9727 171.365 72.1884 171.264 72.3861C171.163 72.5838 171.024 72.7596 170.855 72.9035C170.552 73.1566 170.171 73.2977 169.777 73.3033Z" fill="#407BFF"/>
<path d="M202.052 69.5115C211.112 61.8065 212.21 48.2159 204.505 39.1561C196.8 30.0964 183.21 28.9981 174.15 36.7031C165.09 44.4082 163.992 57.9987 171.697 67.0585C179.402 76.1182 192.992 77.2165 202.052 69.5115Z" fill="white"/>
<path d="M188.308 75.6071C187.64 75.6071 186.971 75.6071 186.298 75.5335C181.863 75.1757 177.633 73.5105 174.144 70.7487C170.655 67.9869 168.064 64.2525 166.697 60.0177C165.331 55.783 165.251 51.2381 166.468 46.9579C167.684 42.6777 170.143 38.8545 173.533 35.9717C176.922 33.089 181.091 31.2762 185.511 30.7627C189.931 30.2491 194.404 31.0578 198.364 33.0866C202.325 35.1154 205.595 38.2731 207.76 42.1603C209.926 46.0475 210.89 50.4896 210.531 54.9248C210.078 60.5246 207.546 65.7522 203.434 69.5796C199.321 73.407 193.925 75.5571 188.308 75.6071ZM187.945 32.554C182.583 32.605 177.454 34.7533 173.657 38.5388C169.859 42.3244 167.695 47.4464 167.627 52.808C167.559 58.1696 169.594 63.3446 173.294 67.2249C176.995 71.1052 182.068 73.3823 187.426 73.5687C192.785 73.7551 198.004 71.8359 201.965 68.2221C205.927 64.6083 208.315 59.5872 208.62 54.2338C208.925 48.8805 207.122 43.6205 203.597 39.5802C200.072 35.54 195.105 33.0405 189.759 32.6172C189.142 32.5751 188.537 32.554 187.945 32.554Z" fill="#407BFF"/>
<path opacity="0.2" d="M195.851 56.0352C195.64 56.0352 195.43 56.0352 195.225 56.0352C193.367 55.886 191.644 55.0046 190.436 53.5851C189.227 52.1657 188.632 50.3243 188.781 48.4661C188.931 46.6079 189.812 44.8851 191.231 43.6767C192.651 42.4683 194.492 41.8733 196.351 42.0226C198.156 42.1627 199.838 42.9962 201.043 44.3483C202.248 45.7005 202.883 47.4665 202.815 49.2764C202.747 51.0862 201.981 52.7996 200.678 54.0575C199.375 55.3155 197.636 56.0204 195.825 56.0247L195.851 56.0352ZM195.751 44.6158C194.894 44.6222 194.058 44.878 193.345 45.3519C192.632 45.8259 192.072 46.4974 191.734 47.2844C191.396 48.0714 191.294 48.9398 191.442 49.7834C191.59 50.6271 191.98 51.4095 192.565 52.0349C193.15 52.6604 193.905 53.1018 194.737 53.3052C195.569 53.5087 196.442 53.4653 197.25 53.1805C198.058 52.8957 198.765 52.3817 199.285 51.7014C199.806 51.0211 200.116 50.2039 200.18 49.3498C200.271 48.1864 199.897 47.0343 199.14 46.1467C198.382 45.259 197.303 44.7084 196.14 44.6158C196.014 44.621 195.882 44.6158 195.751 44.6158Z" fill="#407BFF"/>
<path opacity="0.4" d="M179.97 51.4111C179.912 52.1857 179.624 52.9255 179.145 53.5367C178.665 54.1478 178.015 54.6029 177.277 54.8442C176.538 55.0856 175.745 55.1022 174.997 54.8922C174.249 54.6822 173.58 54.2548 173.075 53.6644C172.57 53.0739 172.252 52.3469 172.161 51.5754C172.07 50.8039 172.209 50.0227 172.563 49.3307C172.916 48.6388 173.466 48.0672 174.145 47.6884C174.823 47.3097 175.598 47.1407 176.373 47.2031C177.407 47.2863 178.366 47.7758 179.04 48.5644C179.714 49.353 180.049 50.3765 179.97 51.4111Z" fill="#407BFF"/>
<path opacity="0.2" d="M190.564 64.0142C190.52 64.5605 190.314 65.0815 189.974 65.5111C189.634 65.9407 189.173 66.2598 188.652 66.428C188.13 66.5961 187.57 66.6058 187.043 66.4558C186.516 66.3059 186.045 66.0029 185.69 65.5853C185.334 65.1677 185.111 64.6542 185.048 64.1097C184.985 63.5653 185.084 63.0142 185.334 62.5263C185.584 62.0384 185.973 61.6355 186.451 61.3685C186.93 61.1016 187.477 60.9825 188.024 61.0265C188.756 61.0869 189.435 61.4352 189.911 61.9953C190.388 62.5553 190.622 63.2813 190.564 64.0142Z" fill="#407BFF"/>
<path opacity="0.2" d="M165.327 100.408H165.243L153.334 99.445C153.207 99.4351 153.083 99.3999 152.969 99.3414C152.855 99.2829 152.754 99.2023 152.672 99.1044C152.59 99.0064 152.528 98.8931 152.49 98.7709C152.452 98.6488 152.438 98.5203 152.451 98.393L153.413 86.4843C153.424 86.357 153.46 86.2331 153.518 86.1197C153.577 86.0063 153.658 85.9056 153.755 85.8234C153.853 85.7413 153.966 85.6793 154.088 85.6411C154.21 85.6028 154.338 85.5891 154.465 85.6006L166.369 86.5632C166.496 86.5738 166.62 86.6095 166.733 86.6682C166.847 86.7269 166.947 86.8074 167.03 86.9052C167.112 87.003 167.174 87.1161 167.212 87.238C167.25 87.3598 167.264 87.488 167.252 87.6152L166.29 99.5186C166.28 99.645 166.245 99.7683 166.187 99.8811C166.13 99.994 166.05 100.094 165.953 100.176C165.778 100.324 165.557 100.406 165.327 100.408ZM154.45 97.5934L164.444 98.4035L165.248 88.4095L155.254 87.5994L154.45 97.5934Z" fill="#263238"/>
<path d="M210.794 95.6739H210.71L171.818 92.5179C171.563 92.4969 171.327 92.3757 171.162 92.1809C170.997 91.9861 170.916 91.7336 170.937 91.479C170.958 91.2244 171.079 90.9886 171.274 90.8233C171.469 90.6581 171.721 90.577 171.976 90.598L210.863 93.754C210.989 93.7585 211.114 93.7878 211.229 93.8403C211.344 93.8928 211.447 93.9675 211.533 94.0601C211.62 94.1526 211.687 94.2613 211.731 94.3798C211.775 94.4983 211.796 94.6243 211.791 94.7507C211.787 94.8771 211.757 95.0014 211.705 95.1165C211.652 95.2316 211.578 95.3352 211.485 95.4214C211.393 95.5076 211.284 95.5747 211.165 95.6189C211.047 95.6632 210.921 95.6836 210.794 95.6791V95.6739Z" fill="#E0E0E0"/>
<path d="M183.979 98.3562H183.895L171.428 97.3516C171.296 97.3493 171.166 97.3199 171.045 97.2652C170.924 97.2106 170.816 97.1317 170.728 97.0336C170.639 96.9355 170.571 96.8202 170.528 96.6948C170.486 96.5695 170.469 96.4367 170.48 96.3048C170.491 96.1729 170.529 96.0445 170.591 95.9278C170.654 95.811 170.739 95.7083 170.843 95.626C170.947 95.5436 171.066 95.4835 171.194 95.4491C171.322 95.4148 171.455 95.4071 171.586 95.4264L184.052 96.4363C184.308 96.4461 184.549 96.5569 184.722 96.7443C184.896 96.9317 184.988 97.1804 184.978 97.4357C184.968 97.691 184.858 97.932 184.67 98.1056C184.483 98.2792 184.234 98.3712 183.979 98.3615V98.3562Z" fill="#E0E0E0"/>
<path d="M202.331 99.8393H202.247L191.464 98.9661C191.209 98.9452 190.973 98.824 190.808 98.6292C190.643 98.4343 190.562 98.1819 190.583 97.9273C190.604 97.6727 190.725 97.4368 190.92 97.2716C191.115 97.1064 191.367 97.0253 191.622 97.0462L202.378 97.9141C202.634 97.9232 202.875 98.0333 203.049 98.2202C203.223 98.4071 203.316 98.6556 203.307 98.9109C203.298 99.1662 203.188 99.4074 203.001 99.5815C202.814 99.7556 202.565 99.8483 202.31 99.8393H202.331Z" fill="#E0E0E0"/>
<path opacity="0.2" d="M163.617 121.574H163.533L151.624 120.612C151.497 120.602 151.373 120.566 151.259 120.508C151.145 120.45 151.044 120.369 150.962 120.271C150.88 120.173 150.818 120.06 150.78 119.938C150.742 119.815 150.728 119.687 150.741 119.56L151.703 107.656C151.714 107.529 151.75 107.405 151.808 107.292C151.867 107.178 151.948 107.077 152.045 106.995C152.143 106.913 152.256 106.851 152.378 106.813C152.5 106.775 152.628 106.761 152.755 106.773L164.638 107.772C164.765 107.782 164.889 107.817 165.003 107.875C165.117 107.934 165.218 108.015 165.3 108.112C165.383 108.21 165.444 108.324 165.482 108.446C165.52 108.568 165.534 108.697 165.521 108.824L164.559 120.733C164.537 120.987 164.416 121.223 164.222 121.39C164.048 121.519 163.834 121.584 163.617 121.574ZM152.74 118.765L162.734 119.575L163.538 109.581L153.544 108.771L152.74 118.765Z" fill="#263238"/>
<path d="M202.105 116.277H202.02L170.108 113.695C169.853 113.674 169.617 113.553 169.452 113.358C169.287 113.163 169.206 112.91 169.227 112.656C169.248 112.401 169.369 112.165 169.564 112C169.759 111.835 170.011 111.754 170.266 111.775L202.178 114.352C202.433 114.362 202.674 114.473 202.848 114.66C203.022 114.848 203.114 115.096 203.104 115.352C203.094 115.607 202.983 115.848 202.796 116.021C202.609 116.195 202.36 116.287 202.105 116.277Z" fill="#E0E0E0"/>
<path d="M189.318 120.08H189.234L169.719 118.502C169.587 118.5 169.456 118.47 169.336 118.416C169.215 118.361 169.107 118.282 169.018 118.184C168.929 118.086 168.861 117.971 168.819 117.845C168.776 117.72 168.76 117.587 168.771 117.455C168.782 117.323 168.819 117.195 168.882 117.078C168.944 116.961 169.03 116.859 169.133 116.776C169.237 116.694 169.357 116.634 169.484 116.6C169.612 116.565 169.746 116.557 169.877 116.577L189.386 118.155C189.641 118.164 189.883 118.274 190.057 118.461C190.231 118.648 190.324 118.896 190.315 119.152C190.305 119.407 190.195 119.648 190.008 119.822C189.821 119.996 189.573 120.089 189.318 120.08Z" fill="#E0E0E0"/>
<path opacity="0.3" d="M94.3935 92.0478C98.4807 80.0073 90.2449 66.3261 75.9982 61.4901C61.7516 56.654 46.8891 62.4943 42.8019 74.5347C38.7147 86.5752 46.9506 100.256 61.1972 105.092C75.4438 109.929 90.3064 104.088 94.3935 92.0478Z" fill="#407BFF"/>
<path opacity="0.3" d="M83.9462 66.8005L78.2305 60.8838L45.59 92.4154L51.3057 98.3321L83.9462 66.8005Z" fill="white"/>
<path opacity="0.3" d="M91.3983 72.8731L86.936 68.2539L53.5389 100.516L58.0011 105.136L91.3983 72.8731Z" fill="white"/>
<path d="M71.3519 108.654C67.6955 108.641 64.0657 108.032 60.6058 106.849C53.3049 104.367 47.2506 99.6169 43.5528 93.4732C39.7919 87.2296 38.9083 80.3232 41.0649 73.9534C43.2215 67.5835 48.1396 62.6444 54.925 59.9776C61.5999 57.3476 69.2953 57.2739 76.5962 59.7566C83.897 62.2394 89.9566 66.9839 93.6543 73.1276C97.41 79.3712 98.2937 86.3039 96.1423 92.6527C93.991 99.0015 89.0624 103.962 82.2822 106.623C78.7982 107.979 75.0904 108.668 71.3519 108.654ZM65.85 61.6345C62.5783 61.6214 59.3331 62.2208 56.282 63.4018C50.496 65.6899 46.3512 69.8348 44.5522 75.1579C42.7533 80.481 43.5002 86.2986 46.7036 91.5954C49.9543 96.9974 55.3142 101.184 61.7893 103.383C68.2643 105.582 75.0708 105.524 80.9357 103.22C86.6901 100.958 90.856 96.7923 92.6549 91.4902C94.4539 86.1881 93.7069 80.3495 90.4983 75.0475C87.2477 69.6454 81.893 65.4637 75.4127 63.2651C72.3356 62.2027 69.1052 61.6519 65.85 61.6345Z" fill="#263238"/>
<path d="M96.3682 89.5751C99.9559 89.9892 103.52 90.5879 107.046 91.3688C110.549 92.1157 114.021 92.9784 117.456 93.9252C120.89 94.872 124.294 95.9082 127.691 97.0128C129.369 97.6072 131.121 98.0017 132.678 98.9432C133.492 99.4246 134.243 100.006 134.913 100.674C135.281 101.037 135.62 101.427 135.929 101.841C136.28 102.302 136.583 102.797 136.833 103.32C137.32 104.324 137.392 105.479 137.034 106.536C136.675 107.593 135.916 108.467 134.919 108.969C134.399 109.229 133.854 109.437 133.293 109.589C132.799 109.729 132.294 109.831 131.784 109.895C130.844 110.015 129.893 110.015 128.954 109.895C127.144 109.695 125.519 108.942 123.825 108.395C120.464 107.212 117.129 105.96 113.831 104.608C110.533 103.256 107.251 101.841 104.011 100.3C100.74 98.7711 97.5504 97.0751 94.4536 95.2191C93.8615 94.8562 93.4104 94.3027 93.1744 93.6496C92.9384 92.9965 92.9315 92.2825 93.1547 91.6249C93.378 90.9674 93.8182 90.4052 94.4031 90.0308C94.988 89.6564 95.6828 89.492 96.3734 89.5646L96.3682 89.5751Z" fill="#263238"/>
<path opacity="0.1" d="M128.344 52.3137C128.723 54.465 127.844 56.0693 126.382 55.8957C124.92 55.7221 123.431 53.8443 123.058 51.6877C122.684 49.5311 123.584 47.9321 125.02 48.1057C126.456 48.2792 127.955 50.1623 128.344 52.3137Z" fill="#407BFF"/>
<path d="M136.234 191.403C140.584 191.067 142.793 188.279 142.451 185.144C142.262 183.413 147.801 182.851 147.801 182.851C146.985 188.316 148.179 189.194 148.384 190.599C148.59 192.003 148.474 193.528 147.332 193.555C145.954 193.592 145.334 193.329 143.619 193.397C141.615 193.471 140.263 193.549 136.707 193.555C135.292 193.565 134.314 191.561 136.234 191.403Z" fill="#263238"/>
<path d="M175.273 188.248C177.846 183.845 175.731 180.952 173.874 178.559C172.775 177.144 178.051 175.351 178.051 175.351C179.366 178.659 180.681 178.617 181.996 179.348C183.311 180.079 184.063 181.294 183.342 182.183C182.474 183.235 181.706 183.156 180.686 184.513C179.492 186.091 178.219 188.148 176.546 189.852C175.552 190.878 174.306 189.889 175.273 188.248Z" fill="#263238"/>
<path d="M124.735 99.2121C124.735 99.2121 125.466 121.304 130.863 139.714C133.214 155.631 142.393 185.708 142.393 185.708C144.297 186.162 146.284 186.144 148.179 185.655C148.179 185.655 151.12 162.437 144.944 137.263C148.958 110.411 146.228 96.7031 146.228 96.7031L124.735 99.2121Z" fill="#407BFF"/>
<path d="M133.22 98.197C133.22 98.197 142.44 128.584 149.526 142.639C156.974 157.398 173.022 178.407 173.764 179.338C175.805 178.365 177.588 177.26 178.656 175.771C178.656 175.771 172.522 152.47 163.459 136.595C156.332 101.616 151.582 96.0088 151.582 96.0088L133.22 98.197Z" fill="#407BFF"/>
<path d="M138.601 54.2383C138.211 57.3575 138.075 62.3808 139.574 64.8687C139.574 64.8687 135.597 65.5473 130.427 70.7915C127.271 67.1568 129.816 66.0575 129.816 66.0575C132.126 65.2159 132.157 62.2861 131.884 60.0295L138.601 54.2383Z" fill="#FFC3BD"/>
<path d="M121.901 74.8005C121.306 71.1658 123.452 68.2044 127.96 66.6475C132.115 65.2167 138.08 64.17 142.199 64.7591C146.317 65.3482 147.827 67.3891 147.554 70.4925C146.375 83.9581 151.525 91.8902 151.593 96.0088C141.904 98.481 127.118 100.559 124.736 99.2121C122.995 97.3764 123.331 85.9253 123.873 84.179C119.576 81.9225 122.232 76.8256 121.901 74.8005Z" fill="#407BFF"/>
<path d="M125.992 52.2237C126.055 52.6287 125.892 52.9969 125.624 53.039C125.356 53.0811 125.098 52.7865 125.019 52.3763C124.94 51.966 125.119 51.5978 125.387 51.5557C125.656 51.5136 125.924 51.8134 125.992 52.2237Z" fill="#263238"/>
<path d="M125.509 51.5618L124.457 51.4355C124.457 51.4355 125.109 52.1246 125.509 51.5618Z" fill="#263238"/>
<path d="M125.977 53.0654C125.757 54.0573 125.403 55.0147 124.925 55.9111C125.156 56.0276 125.411 56.0918 125.67 56.099C125.929 56.1063 126.186 56.0565 126.424 55.9532L125.977 53.0654Z" fill="#ED847E"/>
<path d="M124.688 50.0517C124.647 50.0269 124.615 49.9904 124.594 49.9471C124.574 49.9037 124.567 49.8553 124.575 49.808C124.582 49.7607 124.603 49.7166 124.635 49.6813C124.668 49.6461 124.71 49.6212 124.756 49.6099C125.129 49.5045 125.521 49.4901 125.9 49.5679C126.279 49.6457 126.633 49.8134 126.934 50.057C126.979 50.1023 127.005 50.1638 127.005 50.2279C127.005 50.292 126.979 50.3535 126.934 50.3989C126.912 50.422 126.885 50.4403 126.856 50.4529C126.827 50.4654 126.795 50.4719 126.763 50.4719C126.731 50.4719 126.7 50.4654 126.67 50.4529C126.641 50.4403 126.614 50.422 126.592 50.3989C126.351 50.211 126.07 50.0826 125.77 50.0241C125.47 49.9656 125.161 49.9786 124.867 50.0622C124.808 50.0823 124.744 50.0785 124.688 50.0517Z" fill="#263238"/>
<path d="M139.306 49.4156C139.8 54.4915 140.116 56.6323 138.033 59.6094C134.903 64.0857 128.675 63.5544 126.703 58.7205C124.93 54.3705 124.42 46.8013 128.928 44.0346C133.436 41.2678 138.811 44.3397 139.306 49.4156Z" fill="#FFC3BD"/>
<path d="M128.87 52.5971C127.023 52.8654 126.24 50.046 126.871 48.8047C124.693 48.7363 124.314 46.7691 125.019 45.3226C125.724 43.8761 127.486 40.6675 133.83 41.6406C140.173 42.6137 142.246 48.1314 141.694 50.4511C141.141 52.7707 142.277 59.2931 136.349 60.3662C130.421 61.4392 126.813 55.5638 128.87 52.5971Z" fill="#263238"/>
<path d="M150.199 65.1641C146.959 62.0081 134.698 63.5861 125.777 66.4265C116.856 69.2669 119.081 78.2194 119.854 84.4578C120.627 90.6962 125.293 134.722 130.648 150.734C143.65 150.897 163.507 146.526 169.019 143.68C166.857 137.947 155.259 93.3472 153.355 81.6121C152.429 75.8893 153.618 68.4779 150.199 65.1641Z" fill="#407BFF"/>
<path opacity="0.6" d="M150.199 65.1641C146.959 62.0081 134.698 63.5861 125.777 66.4265C116.856 69.2669 119.081 78.2194 119.854 84.4578C120.627 90.6962 125.293 134.722 130.648 150.734C143.65 150.897 163.507 146.526 169.019 143.68C166.857 137.947 155.259 93.3472 153.355 81.6121C152.429 75.8893 153.618 68.4779 150.199 65.1641Z" fill="white"/>
<path opacity="0.5" d="M120.632 91.0801C122.421 88.7657 123.962 86.5249 124.446 85.1415C126.171 80.1919 123.841 93.7048 121.79 100.732C121.332 97.0607 120.943 93.7679 120.632 91.0801Z" fill="#407BFF"/>
<path d="M105.825 94.0156L107.698 95.9092C108.703 98.676 104.768 100.201 104.768 100.201L103.001 101.695C102.736 101.943 102.388 102.082 102.025 102.082C101.663 102.082 101.314 101.943 101.049 101.695L99.7343 100.38C99.4419 100.066 99.2793 99.6524 99.2793 99.223C99.2793 98.7936 99.4419 98.3802 99.7343 98.0658L101.102 96.5509C101.486 96.117 101.957 95.7693 102.485 95.5305L105.825 94.0156Z" fill="#407BFF"/>
<path d="M106.583 93.815C104.479 92.8945 102.554 94.5198 100.797 95.3562C100.497 95.4982 100.397 96.3608 100.923 96.4555C101.262 96.5367 101.614 96.5496 101.958 96.4937C102.302 96.4377 102.631 96.3138 102.927 96.1294C103.369 96.6975 105.205 97.6601 107.035 95.9979C107.177 95.2391 107.015 94.4548 106.583 93.815Z" fill="#407BFF"/>
<path d="M131.469 74.6637L131.211 75.884L130.932 77.036C130.743 77.7987 130.543 78.5561 130.343 79.3083C129.922 80.8179 129.464 82.3223 128.954 83.8161C128.444 85.3099 127.902 86.7985 127.276 88.2871C126.976 89.034 126.64 89.7809 126.303 90.5226L125.777 91.6377L125.456 92.2847C125.314 92.574 125.157 92.8475 124.993 93.121C123.662 95.3184 121.68 97.048 119.323 98.0707L119.102 98.1654L118.939 98.2285L118.624 98.3442L117.987 98.5704L116.746 98.9596L115.536 99.2963L114.342 99.5856C112.764 99.9433 111.186 100.217 109.64 100.432C108.861 100.538 108.088 100.627 107.309 100.711C106.531 100.795 105.773 100.858 104.932 100.906L103.622 93.2315L105.621 92.6003C106.299 92.3846 106.973 92.1532 107.641 91.9218C108.977 91.4694 110.271 90.996 111.549 90.491L112.475 90.1071L113.369 89.7178L114.21 89.3075L114.594 89.0971L114.794 88.9972L114.884 88.9499L114.915 88.9236C115.253 88.6503 115.503 88.2847 115.636 87.8716C115.636 87.819 115.667 87.7716 115.678 87.719V87.6822L115.715 87.577L115.794 87.3456L116.12 86.4093C116.325 85.7676 116.541 85.1416 116.735 84.4841C117.13 83.1849 117.493 81.8541 117.84 80.497C118.187 79.14 118.513 77.7881 118.818 76.4153C118.976 75.7315 119.129 75.0477 119.271 74.3639L119.676 72.3809L131.469 74.6637Z" fill="#407BFF"/>
<g opacity="0.6">
<path d="M131.468 74.6637L131.21 75.884L130.932 77.036C130.742 77.7987 130.542 78.5561 130.342 79.3083C129.922 80.8179 129.464 82.3223 128.954 83.8161C128.444 85.3099 127.902 86.7985 127.276 88.2871C126.976 89.034 126.639 89.7809 126.303 90.5226L125.777 91.6377L125.456 92.2847C125.314 92.574 125.156 92.8475 124.993 93.121C123.661 95.3184 121.68 97.048 119.323 98.0707L119.102 98.1654L118.939 98.2285L118.623 98.3442L117.987 98.5704L116.745 98.9596L115.535 99.2963L114.341 99.5856C112.763 99.9433 111.185 100.217 109.639 100.432C108.861 100.538 108.087 100.627 107.309 100.711C106.53 100.795 105.773 100.858 104.931 100.906L103.622 93.2315L105.62 92.6003C106.299 92.3846 106.972 92.1532 107.64 91.9218C108.976 91.4694 110.27 90.996 111.548 90.491L112.474 90.1071L113.368 89.7178L114.21 89.3075L114.594 89.0971L114.794 88.9972L114.883 88.9499L114.915 88.9236C115.252 88.6503 115.502 88.2847 115.635 87.8716C115.635 87.819 115.667 87.7716 115.678 87.719V87.6822L115.714 87.577L115.793 87.3456L116.119 86.4093C116.324 85.7676 116.54 85.1416 116.735 84.4841C117.129 83.1849 117.492 81.8541 117.839 80.497C118.187 79.14 118.513 77.7881 118.818 76.4153C118.976 75.7315 119.128 75.0477 119.27 74.3639L119.675 72.3809L131.468 74.6637Z" fill="white"/>
</g>
<path opacity="0.5" d="M140.005 96.0563C140.005 96.0563 148.663 94.8412 151.209 93.1738C148.127 95.8722 143.956 96.4455 140.005 96.0563Z" fill="#407BFF"/>
<path opacity="0.5" d="M140.968 97.0293C140.968 97.0293 147.327 97.0767 149.331 96.1299C146.833 97.7763 143.766 97.7447 140.968 97.0293Z" fill="#407BFF"/>
<path d="M125.509 53.8076C124.893 55.4592 124.215 57.2686 124.673 59.2727C125.13 61.2768 127.166 62.3288 130.311 62.3025C129.975 60.9927 128.549 60.1985 127.418 58.1839C126.287 56.1693 127.418 51.6036 127.418 51.6036L127.024 51.2617C126.558 52.4094 126.186 53.5934 125.914 54.8017C125.388 54.0127 125.509 53.8076 125.509 53.8076Z" fill="#407BFF"/>
<path opacity="0.3" d="M125.509 53.8076C124.893 55.4592 124.215 57.2686 124.673 59.2727C125.13 61.2768 127.166 62.3288 130.311 62.3025C129.975 60.9927 128.549 60.1985 127.418 58.1839C126.287 56.1693 127.418 51.6036 127.418 51.6036L127.024 51.2617C126.558 52.4094 126.186 53.5934 125.914 54.8017C125.388 54.0127 125.509 53.8076 125.509 53.8076Z" fill="white"/>
<path d="M130.269 53.9441C130.205 54.4288 130.035 54.8933 129.77 55.3043C129.505 55.7154 129.153 56.0628 128.738 56.3216C127.686 56.8845 126.839 55.6063 126.845 54.144C126.845 52.8237 127.371 50.9459 128.57 50.988C129.769 51.0301 130.511 52.6081 130.269 53.9441Z" fill="#FFC3BD"/>
<path d="M124.752 46.0124C125.114 48.3899 127.781 55.149 131.842 57.8368C135.524 60.288 139.359 60.5826 140.6 57.9263C140.6 57.9263 145.145 59.4674 146.228 50.7411C147.159 43.2824 141.752 37.9856 135.882 37.0651C130.543 36.234 120.049 38.6799 124.752 46.0124Z" fill="#407BFF"/>
<path opacity="0.2" d="M125.22 46.2285C125.22 46.2285 129.338 53.9134 140.148 57.5691C133.836 57.0115 128.754 52.1618 125.22 46.2285Z" fill="black"/>
</svg>
