<svg width="396" height="289" viewBox="0 0 396 289" fill="none" xmlns="http://www.w3.org/2000/svg">
    <path d="M396 253.511H0V253.704H396V253.511Z" fill="#EBEBEB"/>
    <path d="M356.321 265.97H330.09V266.163H356.321V265.97Z" fill="#EBEBEB"/>
    <path d="M262.326 268.075H255.443V268.269H262.326V268.075Z" fill="#EBEBEB"/>
    <path d="M329.297 258.784H314.099V258.978H329.297V258.784Z" fill="#EBEBEB"/>
    <path d="M75.7543 260.085H41.5479V260.279H75.7543V260.085Z" fill="#EBEBEB"/>
    <path d="M87.8249 260.085H82.8115V260.279H87.8249V260.085Z" fill="#EBEBEB"/>
    <path d="M178.319 263.353H104.124V263.546H178.319V263.353Z" fill="#EBEBEB"/>
    <path d="M187.703 218.976H34.7761C33.5781 218.974 32.4299 218.507 31.5835 217.678C30.7371 216.849 30.2617 215.726 30.2617 214.555V4.38262C30.2721 3.21807 30.7521 2.10457 31.5974 1.28398C32.4426 0.463395 33.5849 0.00199493 34.7761 0H187.703C188.903 0 190.053 0.465818 190.901 1.29498C191.749 2.12414 192.226 3.24872 192.226 4.42133V214.555C192.226 215.727 191.749 216.852 190.901 217.681C190.053 218.51 188.903 218.976 187.703 218.976ZM34.7761 0.154863C33.6306 0.156915 32.5327 0.603241 31.7235 1.39588C30.9142 2.18851 30.4597 3.26269 30.4597 4.38262V214.555C30.4597 215.675 30.9142 216.749 31.7235 217.542C32.5327 218.334 33.6306 218.78 34.7761 218.783H187.703C188.85 218.78 189.948 218.334 190.759 217.542C191.569 216.75 192.026 215.675 192.028 214.555V4.38262C192.026 3.26198 191.569 2.18782 190.759 1.3954C189.948 0.60299 188.85 0.15691 187.703 0.154863H34.7761Z"
          fill="#EBEBEB"/>
    <path d="M359.022 218.976H206.087C204.888 218.974 203.739 218.508 202.891 217.679C202.044 216.85 201.567 215.727 201.564 214.555V4.38262C201.577 3.21736 202.059 2.10387 202.905 1.2835C203.752 0.463124 204.895 0.00197318 206.087 0H359.022C360.212 0.00402992 361.352 0.46633 362.196 1.2867C363.039 2.10707 363.518 3.21941 363.528 4.38262V214.555C363.528 215.725 363.054 216.847 362.21 217.676C361.365 218.504 360.219 218.972 359.022 218.976ZM206.087 0.154863C204.941 0.15691 203.842 0.60299 203.031 1.3954C202.221 2.18782 201.765 3.26198 201.762 4.38262V214.555C201.765 215.675 202.221 216.75 203.031 217.542C203.842 218.334 204.941 218.78 206.087 218.783H359.022C360.168 218.78 361.267 218.334 362.077 217.542C362.888 216.75 363.344 215.675 363.346 214.555V4.38262C363.344 3.26198 362.888 2.18782 362.077 1.3954C361.267 0.60299 360.168 0.15691 359.022 0.154863H206.087Z"
          fill="#EBEBEB"/>
    <path d="M100.275 43.54H53.0322V112.392H100.275V43.54Z" fill="#E6E6E6"/>
    <path d="M100.275 112.399H101.02L101.02 43.5474H100.275L100.275 112.399Z" fill="#E0E0E0"/>
    <path d="M97.6064 109.782V46.1562H55.7097L55.7097 109.782H97.6064Z" fill="#FAFAFA"/>
    <path d="M84.5787 72.7469C88.9521 68.4711 88.9521 61.5387 84.5787 57.2629C80.2052 52.9871 73.1145 52.9871 68.7411 57.2629C64.3676 61.5387 64.3676 68.4711 68.7411 72.7469C73.1145 77.0226 80.2052 77.0226 84.5787 72.7469Z"
          fill="#F0F0F0"/>
    <path d="M90.4688 82.2861H62.8359V85.0504H90.4688V82.2861Z" fill="#EBEBEB"/>
    <path d="M90.4688 89.6426H62.8359V92.4069H90.4688V89.6426Z" fill="#EBEBEB"/>
    <path d="M90.4688 96.9902H62.8359V99.7545H90.4688V96.9902Z" fill="#EBEBEB"/>
    <path d="M159.642 53.459H112.399V122.311H159.642V53.459Z" fill="#E6E6E6"/>
    <path d="M159.642 122.303H160.387V53.4507H159.642V122.303Z" fill="#E0E0E0"/>
    <path d="M156.976 119.702V56.0762H115.079V119.702H156.976Z" fill="#FAFAFA"/>
    <path d="M146.913 77.4229C148.334 71.5377 144.606 65.6409 138.586 64.2518C132.567 62.8628 126.535 66.5076 125.114 72.3928C123.694 78.278 127.422 84.1749 133.441 85.5639C139.461 86.9529 145.493 83.3081 146.913 77.4229Z"
          fill="#F0F0F0"/>
    <path d="M149.838 92.2051H122.205V94.9694H149.838V92.2051Z" fill="#EBEBEB"/>
    <path d="M149.838 99.5537H122.205V102.318H149.838V99.5537Z" fill="#EBEBEB"/>
    <path d="M149.838 106.901H122.205V109.666H149.838V106.901Z" fill="#EBEBEB"/>
    <path d="M326.249 150.991H119.782V153.144H326.249V150.991Z" fill="#EBEBEB"/>
    <path d="M326.24 153.144H342.959V150.991H326.24V153.144Z" fill="#E0E0E0"/>
    <path d="M326.242 153.144H122.61V253.51H326.242V153.144Z" fill="#F5F5F5"/>
    <path d="M168.284 153.144H167.144V253.51H168.284V153.144Z" fill="#E6E6E6"/>
    <path d="M222.141 173.555H221.001V253.51H222.141V173.555Z" fill="#E6E6E6"/>
    <path d="M167.715 233.657V232.542H122.618V233.657H167.715Z" fill="#E6E6E6"/>
    <path d="M167.715 213.804V212.689H122.618V213.804H167.715Z" fill="#E6E6E6"/>
    <path d="M167.715 193.95V192.835H122.618V193.95H167.715Z" fill="#E6E6E6"/>
    <path d="M326.248 174.112V172.997H122.617V174.112H326.248Z" fill="#E6E6E6"/>
    <path d="M326.249 253.511H340.877V153.144H326.249V253.511Z" fill="#EBEBEB"/>
    <path d="M329.686 16.8105H257.614V117.146H329.686V16.8105Z" fill="#FAFAFA"/>
    <path d="M330.478 18.0175H256.822C256.66 18.0175 256.5 17.9862 256.351 17.9254C256.201 17.8646 256.066 17.7755 255.952 17.6633C255.837 17.551 255.747 17.4178 255.686 17.2713C255.625 17.1247 255.594 16.9678 255.595 16.8096C255.594 16.6517 255.625 16.4952 255.686 16.3491C255.747 16.203 255.838 16.0703 255.952 15.9586C256.066 15.847 256.202 15.7586 256.351 15.6987C256.501 15.6387 256.661 15.6084 256.822 15.6094H330.478C330.64 15.6084 330.801 15.6387 330.951 15.6985C331.1 15.7584 331.237 15.8466 331.352 15.9582C331.466 16.0697 331.557 16.2024 331.62 16.3485C331.682 16.4946 331.714 16.6513 331.714 16.8096C331.714 17.1299 331.584 17.4372 331.352 17.6637C331.12 17.8903 330.806 18.0175 330.478 18.0175Z"
          fill="#EBEBEB"/>
    <path d="M330.478 118.353H256.822C256.66 118.353 256.5 118.322 256.351 118.261C256.201 118.201 256.066 118.111 255.952 117.999C255.837 117.887 255.747 117.754 255.686 117.607C255.625 117.461 255.594 117.304 255.595 117.146C255.594 116.988 255.625 116.831 255.686 116.685C255.747 116.539 255.838 116.406 255.952 116.295C256.066 116.183 256.202 116.095 256.351 116.035C256.501 115.975 256.661 115.944 256.822 115.945H330.478C330.64 115.944 330.801 115.975 330.951 116.034C331.1 116.094 331.237 116.183 331.352 116.294C331.466 116.406 331.557 116.538 331.62 116.684C331.682 116.831 331.714 116.987 331.714 117.146C331.714 117.466 331.584 117.773 331.352 118C331.12 118.226 330.806 118.353 330.478 118.353Z"
          fill="#EBEBEB"/>
    <path d="M296.351 41.5889H290.95C286.318 41.5889 282.562 45.2601 282.562 49.7889V66.2972C282.562 70.826 286.318 74.4972 290.95 74.4972H296.351C300.983 74.4972 304.738 70.826 304.738 66.2972V49.7889C304.738 45.2601 300.983 41.5889 296.351 41.5889Z"
          fill="#F0F0F0"/>
    <path d="M287.314 107.924C286.054 107.924 284.846 107.434 283.954 106.563C283.063 105.692 282.562 104.51 282.562 103.278V68.1781C282.562 66.9459 283.063 65.7642 283.954 64.893C284.846 64.0217 286.054 63.5322 287.314 63.5322C288.575 63.5322 289.784 64.0217 290.675 64.893C291.566 65.7642 292.066 66.9459 292.066 68.1781V103.278C292.066 104.51 291.566 105.692 290.675 106.563C289.784 107.434 288.575 107.924 287.314 107.924Z"
          fill="#F0F0F0"/>
    <path d="M278.046 45.5762H278.038C276.473 45.5762 275.203 46.8173 275.203 48.3482V69.3167C275.203 70.8476 276.473 72.0887 278.038 72.0887H278.046C279.612 72.0887 280.882 70.8476 280.882 69.3167V48.3482C280.882 46.8173 279.612 45.5762 278.046 45.5762Z"
          fill="#F0F0F0"/>
    <path d="M309.259 72.0964C308.507 72.0924 307.787 71.7979 307.256 71.2773C306.725 70.7566 306.426 70.0519 306.424 69.3167V48.356C306.426 47.6207 306.725 46.916 307.256 46.3953C307.787 45.8747 308.507 45.5803 309.259 45.5762C310.012 45.5802 310.733 45.8744 311.265 46.3948C311.797 46.9153 312.098 47.62 312.102 48.356V69.3167C312.098 70.0526 311.797 70.7573 311.265 71.2778C310.733 71.7982 310.012 72.0924 309.259 72.0964Z"
          fill="#F0F0F0"/>
    <path d="M299.985 107.924C298.725 107.924 297.516 107.434 296.625 106.563C295.734 105.692 295.233 104.51 295.233 103.278V68.1781C295.233 66.9459 295.734 65.7642 296.625 64.893C297.516 64.0217 298.725 63.5322 299.985 63.5322C301.246 63.5322 302.454 64.0217 303.346 64.893C304.237 65.7642 304.737 66.9459 304.737 68.1781V103.278C304.737 104.51 304.237 105.692 303.346 106.563C302.454 107.434 301.246 107.924 299.985 107.924Z"
          fill="#F0F0F0"/>
    <path d="M298.595 36.4919C301.326 33.8218 301.326 29.4927 298.595 26.8226C295.864 24.1525 291.436 24.1525 288.705 26.8226C285.974 29.4927 285.974 33.8218 288.705 36.4919C291.436 39.1619 295.864 39.1619 298.595 36.4919Z"
          fill="#F0F0F0"/>
    <path d="M301.879 131.378H268.702V150.991H301.879V131.378Z" fill="#F5F5F5"/>
    <path d="M301.879 150.991H310.053V131.378H301.879V150.991Z" fill="#EBEBEB"/>
    <path d="M291.632 139.307H287.205V134.986H283.379V139.307H278.96V143.055H283.379V147.375H287.205V143.055H291.632V139.307Z"
          fill="white"/>
    <path d="M239.652 150.991H236.484V116.294C236.484 114.758 236.175 113.236 235.573 111.817C234.972 110.397 234.09 109.108 232.979 108.021C231.868 106.935 230.549 106.073 229.097 105.485C227.645 104.897 226.089 104.594 224.517 104.594C222.945 104.594 221.389 104.897 219.937 105.485C218.485 106.073 217.166 106.935 216.055 108.021C214.944 109.108 214.062 110.397 213.461 111.817C212.859 113.236 212.55 114.758 212.55 116.294H209.382C209.382 112.37 210.976 108.606 213.815 105.831C216.653 103.056 220.503 101.497 224.517 101.497C228.531 101.497 232.381 103.056 235.219 105.831C238.057 108.606 239.652 112.37 239.652 116.294V150.991Z"
          fill="#EBEBEB"/>
    <path d="M245.552 145.912H242.384V150.992H245.552V145.912Z" fill="#EBEBEB"/>
    <path d="M144.801 149.187H141.633V150.991H144.801V149.187Z" fill="#EBEBEB"/>
    <path d="M139.187 149.187H136.019V150.991H139.187V149.187Z" fill="#EBEBEB"/>
    <path d="M109.147 196.886H67.9072V253.511H109.147V196.886Z" fill="#F5F5F5"/>
    <path d="M107.539 195.468H69.5068V196.893H107.539V195.468Z" fill="#E6E6E6"/>
    <path d="M80.9673 182.691H96.0787C99.5445 182.691 102.868 184.037 105.319 186.433C107.77 188.829 109.147 192.079 109.147 195.468H67.9072C67.9062 193.79 68.2432 192.129 68.8991 190.579C69.555 189.029 70.5168 187.62 71.7296 186.434C72.9425 185.247 74.3826 184.306 75.9676 183.664C77.5526 183.022 79.2516 182.691 80.9673 182.691Z"
          fill="#F5F5F5"/>
    <path d="M73.3864 247.301H69.0225C67.3421 247.301 65.7305 247.954 64.5423 249.115C63.3541 250.277 62.6865 251.853 62.6865 253.495H79.762C79.7621 252.679 79.5969 251.87 79.276 251.116C78.9551 250.362 78.4848 249.677 77.8923 249.101C77.2997 248.526 76.5966 248.07 75.8233 247.761C75.05 247.452 74.2218 247.296 73.3864 247.301Z"
          fill="#E6E6E6"/>
    <path d="M198 288.479C282.81 288.479 351.561 284.554 351.561 279.713C351.561 274.873 282.81 270.948 198 270.948C113.191 270.948 44.4395 274.873 44.4395 279.713C44.4395 284.554 113.191 288.479 198 288.479Z"
          fill="#F5F5F5"/>
    <path d="M151.836 70.563L148.24 66.2578L143.219 69.3551C143.219 69.3551 145.516 71.7554 148.303 75.1082L151.836 70.563Z"
          fill="#B55B52"/>
    <path d="M196.67 70.9125C196.464 71.3461 196.321 71.6093 196.147 71.9423L195.648 72.8715C195.308 73.4832 194.975 74.0871 194.619 74.6834C193.922 75.8706 193.19 77.0373 192.425 78.1833C190.886 80.5297 189.187 82.7725 187.34 84.8966C185.383 87.1633 183.179 89.2145 180.767 91.0136C179.432 91.978 178.011 92.8228 176.521 93.5379L175.326 94.0567L174.066 94.5136C173.647 94.6607 173.195 94.7691 172.752 94.893L172.419 94.9859L171.944 95.0865C171.595 95.1562 171.255 95.2027 170.922 95.2414C169.71 95.3575 168.487 95.2949 167.295 95.0556C166.317 94.8679 165.36 94.5905 164.436 94.2271C162.894 93.6099 161.419 92.8448 160.032 91.9428C157.632 90.3605 155.372 88.5836 153.276 86.631C151.241 84.7804 149.356 82.8679 147.55 80.9166C146.647 79.9332 145.752 78.9576 144.881 77.951C144.01 76.9444 143.178 75.9765 142.275 74.8537L151.035 68.2101C151.716 69.0541 152.532 70.022 153.316 70.9125C154.1 71.8029 154.9 72.7166 155.739 73.5916C157.403 75.3338 159.105 77.014 160.856 78.5549C162.505 80.0352 164.283 81.3721 166.17 82.5504C166.921 83.02 167.716 83.4168 168.546 83.7351C169.227 83.9906 169.734 83.9829 169.584 83.9442H169.504L169.639 83.9054C169.813 83.8358 169.98 83.797 170.162 83.7274L170.692 83.5028L171.247 83.2318C172.039 82.8029 172.791 82.308 173.496 81.7529C175.115 80.4362 176.574 78.9423 177.844 77.3005C179.234 75.5324 180.496 73.6722 181.622 71.7332C182.203 70.7421 182.749 69.7355 183.261 68.7134C183.523 68.2101 183.776 67.699 184.053 67.1648L184.402 66.3905C184.505 66.1582 184.639 65.8562 184.695 65.7168L196.67 70.9125Z"
          fill="#407BFF"/>
    <path opacity="0.8"
          d="M196.67 70.9125C196.464 71.3461 196.321 71.6093 196.147 71.9423L195.648 72.8715C195.308 73.4832 194.975 74.0871 194.619 74.6834C193.922 75.8706 193.19 77.0373 192.425 78.1833C190.886 80.5297 189.187 82.7725 187.34 84.8966C185.383 87.1633 183.179 89.2145 180.767 91.0136C179.432 91.978 178.011 92.8228 176.521 93.5379L175.326 94.0567L174.066 94.5136C173.647 94.6607 173.195 94.7691 172.752 94.893L172.419 94.9859L171.944 95.0865C171.595 95.1562 171.255 95.2027 170.922 95.2414C169.71 95.3575 168.487 95.2949 167.295 95.0556C166.317 94.8679 165.36 94.5905 164.436 94.2271C162.894 93.6099 161.419 92.8448 160.032 91.9428C157.632 90.3605 155.372 88.5836 153.276 86.631C151.241 84.7804 149.356 82.8679 147.55 80.9166C146.647 79.9332 145.752 78.9576 144.881 77.951C144.01 76.9444 143.178 75.9765 142.275 74.8537L151.035 68.2101C151.716 69.0541 152.532 70.022 153.316 70.9125C154.1 71.8029 154.9 72.7166 155.739 73.5916C157.403 75.3338 159.105 77.014 160.856 78.5549C162.505 80.0352 164.283 81.3721 166.17 82.5504C166.921 83.02 167.716 83.4168 168.546 83.7351C169.227 83.9906 169.734 83.9829 169.584 83.9442H169.504L169.639 83.9054C169.813 83.8358 169.98 83.797 170.162 83.7274L170.692 83.5028L171.247 83.2318C172.039 82.8029 172.791 82.308 173.496 81.7529C175.115 80.4362 176.574 78.9423 177.844 77.3005C179.234 75.5324 180.496 73.6722 181.622 71.7332C182.203 70.7421 182.749 69.7355 183.261 68.7134C183.523 68.2101 183.776 67.699 184.053 67.1648L184.402 66.3905C184.505 66.1582 184.639 65.8562 184.695 65.7168L196.67 70.9125Z"
          fill="white"/>
    <path d="M194.911 194.664H220.477L210.783 147.291H198.261L194.911 194.664Z" fill="#407BFF"/>
    <path opacity="0.6" d="M194.911 194.664H220.477L210.783 147.291H198.261L194.911 194.664Z" fill="white"/>
    <path d="M200.391 272.635H193.873L193.596 257.885H200.114L200.391 272.635Z" fill="#B55B52"/>
    <path d="M236.483 272.635H229.965L227.059 257.885H233.577L236.483 272.635Z" fill="#B55B52"/>
    <path d="M229.521 271.901H236.808C236.936 271.9 237.061 271.943 237.16 272.022C237.26 272.101 237.329 272.211 237.354 272.334L238.495 277.994C238.521 278.134 238.514 278.277 238.477 278.414C238.439 278.551 238.371 278.678 238.277 278.786C238.183 278.894 238.066 278.981 237.934 279.039C237.801 279.098 237.658 279.127 237.513 279.125C234.962 279.086 233.727 278.939 230.504 278.939C228.524 278.939 224.437 279.14 221.704 279.14C218.972 279.14 218.679 276.5 219.804 276.26C224.849 275.184 226.781 273.705 228.421 272.288C228.728 272.033 229.119 271.896 229.521 271.901Z"
          fill="#263238"/>
    <path d="M193.939 271.9H201.067C201.194 271.9 201.317 271.943 201.416 272.022C201.514 272.101 201.581 272.212 201.605 272.334L202.754 277.979C202.78 278.118 202.775 278.261 202.739 278.397C202.703 278.534 202.636 278.661 202.544 278.77C202.452 278.879 202.336 278.966 202.205 279.026C202.075 279.086 201.932 279.117 201.787 279.117C199.221 279.071 195.515 278.923 192.283 278.923C188.513 278.923 188.204 279.125 183.785 279.125C181.108 279.125 180.435 276.484 181.56 276.244C186.684 275.153 187.896 275.036 192.362 272.373C192.834 272.078 193.379 271.915 193.939 271.9Z"
          fill="#263238"/>
    <path d="M145.808 64.7866L141.595 64.7246L140.803 70.0364C143.485 70.5157 146.252 70.2474 148.786 69.2621L148.715 67.5354C148.682 66.8005 148.363 66.1058 147.822 65.5943C147.281 65.0829 146.561 64.7938 145.808 64.7866Z"
          fill="#B55B52"/>
    <path d="M135.005 64.9724L135.821 68.3252L140.786 70.0364L141.594 64.7246L135.005 64.9724Z" fill="#B55B52"/>
    <path opacity="0.2" d="M193.596 257.894L193.738 265.497H200.256L200.114 257.894H193.596Z" fill="black"/>
    <path opacity="0.2" d="M233.577 257.894H227.059L228.563 265.497H235.082L233.577 257.894Z" fill="black"/>
    <path d="M185.906 66.9564C184.1 73.7084 180.861 90.7433 184.401 117.837H219.249C219.589 113.09 217.372 91.6183 221.292 69.2638C221.457 68.3537 221.43 67.4203 221.212 66.5209C220.994 65.6216 220.589 64.7754 220.024 64.0347C219.458 63.2939 218.744 62.6743 217.924 62.214C217.104 61.7536 216.197 61.4624 215.257 61.3581C213.903 61.211 212.469 61.0871 211.052 61.0174C206.181 60.885 201.307 61.0402 196.455 61.482C194.386 61.6751 192.337 62.043 190.333 62.5815C189.266 62.8647 188.295 63.4184 187.517 64.1867C186.74 64.955 186.184 65.9104 185.906 66.9564Z"
          fill="white"/>
    <path d="M209.453 47.4736C208.399 52.1195 207.789 57.9037 211.037 61.0164C211.037 61.0164 209.001 65.7397 200.147 65.7397C192.052 65.7397 196.187 61.0164 196.187 61.0164C201.533 59.7775 201.422 53.3507 200.582 49.7269L209.453 47.4736Z"
          fill="#B55B52"/>
    <path d="M199.744 65.0974L197.828 67.1648C197.76 67.2363 197.713 67.3244 197.692 67.4198C197.671 67.5152 197.677 67.6144 197.709 67.7068L198.319 69.5342C198.353 69.6367 198.418 69.7265 198.506 69.7916C198.593 69.8567 198.7 69.8938 198.81 69.8981L200.877 69.9988C200.975 70.0029 201.072 69.9822 201.16 69.9388C201.247 69.8954 201.321 69.8307 201.376 69.751L202.611 67.9778C202.686 67.8821 202.726 67.7651 202.726 67.6449C202.726 67.5246 202.686 67.4076 202.611 67.3119L200.615 65.0896C200.563 65.0256 200.496 64.9742 200.421 64.939C200.345 64.9039 200.262 64.886 200.178 64.8867C200.094 64.8875 200.011 64.9068 199.936 64.9433C199.861 64.9798 199.796 65.0325 199.744 65.0974Z"
          fill="#407BFF"/>
    <path d="M199.259 69.8818C199.259 69.8818 196.091 92.6777 196.02 96.6499C196.061 100.401 196.664 104.126 197.809 107.707C197.809 107.707 199.987 103.681 200.36 96.4795C200.732 89.2784 200.28 73.9238 200.447 69.8818H199.259Z"
          fill="#407BFF"/>
    <path opacity="0.2"
          d="M200.63 49.7346C201.129 51.8563 201.367 54.938 200.4 57.3849C201.034 57.6559 203.648 56.6725 204.733 55.9988C207.148 54.4967 208.083 53.0255 208.97 49.8895C209.112 49.061 209.271 48.2557 209.453 47.4736L200.63 49.7346Z"
          fill="black"/>
    <path d="M192.361 45.205C192.652 45.9294 193.089 46.5896 193.646 47.1467C194.202 47.7038 194.866 48.1467 195.6 48.4494C197.572 49.2237 198.847 47.5357 198.53 45.5612C198.253 43.788 196.883 41.2328 194.792 41.287C194.331 41.3124 193.884 41.4472 193.488 41.6795C193.093 41.9118 192.761 42.2347 192.522 42.6204C192.282 43.0061 192.143 43.443 192.115 43.8933C192.087 44.3436 192.171 44.7938 192.361 45.205Z"
          fill="#B55B52"/>
    <path opacity="0.2"
          d="M192.361 45.205C192.652 45.9294 193.089 46.5896 193.646 47.1467C194.202 47.7038 194.866 48.1467 195.6 48.4494C197.572 49.2237 198.847 47.5357 198.53 45.5612C198.253 43.788 196.883 41.2328 194.792 41.287C194.331 41.3124 193.884 41.4472 193.488 41.6795C193.093 41.9118 192.761 42.2347 192.522 42.6204C192.282 43.0061 192.143 43.443 192.115 43.8933C192.087 44.3436 192.171 44.7938 192.361 45.205Z"
          fill="black"/>
    <path d="M200.377 38.2288C200.005 40.9544 198.263 42.9831 196.489 42.7508C194.715 42.5185 193.582 40.1181 193.962 37.3848C194.342 34.6514 196.077 32.6227 197.851 32.855C199.625 33.0873 200.773 35.4954 200.377 38.2288Z"
          fill="#263238"/>
    <path d="M212.574 41.4345C210.99 47.629 210.372 51.3148 206.563 53.9939C200.845 58.0281 193.598 53.8777 193.297 47.389C193.02 41.5507 195.673 32.4137 202.326 30.9425C203.784 30.6126 205.306 30.6597 206.74 31.079C208.175 31.4983 209.473 32.2756 210.507 33.3342C211.541 34.3928 212.276 35.6964 212.638 37.1167C213 38.537 212.978 40.0251 212.574 41.4345Z"
          fill="#B55B52"/>
    <path d="M202.057 28.7816C198.263 29.5559 194.065 32.5835 197.685 34.7903C201.304 36.9971 209.454 37.3378 209.454 37.3378C209.454 37.3378 206.761 43.5323 210.444 46.7302C211.671 46.134 209.05 51.5387 209.05 51.5387C210.399 51.0845 211.528 50.1575 212.218 48.937C214.42 48.3872 220.93 38.0966 216.59 35.1852C215.766 29.1842 207.149 27.7053 202.057 28.7816Z"
          fill="#263238"/>
    <path d="M211.212 45.166H211.125L205.423 42.6107C205.394 42.6028 205.368 42.589 205.346 42.5703C205.323 42.5515 205.305 42.5283 205.293 42.5022C205.28 42.476 205.274 42.4476 205.273 42.4187C205.273 42.3899 205.279 42.3613 205.291 42.335C205.303 42.3087 205.321 42.2852 205.343 42.2661C205.365 42.247 205.391 42.2328 205.42 42.2245C205.448 42.2161 205.478 42.2138 205.507 42.2176C205.536 42.2215 205.564 42.2314 205.589 42.2468L211.299 44.802C211.348 44.824 211.387 44.8639 211.406 44.9131C211.425 44.9623 211.424 45.017 211.402 45.0653C211.383 45.0976 211.355 45.1242 211.322 45.142C211.288 45.1597 211.25 45.168 211.212 45.166Z"
          fill="white"/>
    <path d="M214.103 48.7824C213.007 49.9683 211.481 50.6881 209.85 50.7879C207.703 50.8963 207.149 48.8908 208.178 47.1409C209.105 45.5922 211.346 43.61 213.279 44.3301C215.211 45.0502 215.425 47.3189 214.103 48.7824Z"
          fill="#B55B52"/>
    <path d="M184.403 117.836C184.403 117.836 182.312 165.456 182.534 184.884C182.764 205.086 191.357 264.019 191.357 264.019H202.389C202.389 264.019 201.399 206.263 202.389 186.425C203.467 164.79 207.316 117.836 207.316 117.836H184.403Z"
          fill="#407BFF"/>
    <path d="M202.902 259.255C202.958 259.255 203.108 264.241 203.108 264.241H190.389L189.66 258.821L202.902 259.255Z"
          fill="#263238"/>
    <path opacity="0.2"
          d="M199.331 130.441C198.951 154.073 200.044 168.429 202.745 179.998C203.41 168.723 204.495 153.818 205.453 141.437L199.331 130.441Z"
          fill="black"/>
    <path d="M196.766 117.836C196.766 117.836 202.943 166.509 206.539 184.744C210.499 204.714 225.547 264.019 225.547 264.019H237.482C237.482 264.019 228.065 206.332 226.022 186.587C223.812 165.131 219.235 117.867 219.235 117.867L196.766 117.836Z"
          fill="#407BFF"/>
    <path d="M237.195 259.519C237.251 259.519 238.082 264.242 238.082 264.242H224.967L223.525 259.039L237.195 259.519Z"
          fill="#263238"/>
    <path d="M202.666 41.5968C202.563 42.1078 202.215 42.4718 201.874 42.4175C201.534 42.3633 201.343 41.9065 201.438 41.3955C201.534 40.8844 201.89 40.5205 202.23 40.5747C202.571 40.6289 202.753 41.0857 202.666 41.5968Z"
          fill="#263238"/>
    <path d="M196.274 40.1251C196.179 40.6361 195.823 41.0001 195.482 40.9459C195.142 40.8917 194.952 40.4348 195.047 39.9238C195.142 39.4127 195.498 39.0488 195.839 39.103C196.179 39.1572 196.37 39.614 196.274 40.1251Z"
          fill="#263238"/>
    <path d="M198.934 41.4033C197.85 42.7414 196.587 43.9315 195.18 44.9419C195.446 45.281 195.786 45.5582 196.175 45.7537C196.564 45.9491 196.992 46.058 197.429 46.0724L198.934 41.4033Z"
          fill="#A02724"/>
    <path d="M198.951 47.6594C198.912 47.6502 198.878 47.6266 198.856 47.5935C198.834 47.5604 198.825 47.5202 198.833 47.4813C198.84 47.4415 198.864 47.4062 198.898 47.383C198.932 47.3598 198.974 47.3507 199.015 47.3575C199.658 47.4727 200.319 47.4404 200.948 47.2631C201.576 47.0857 202.153 46.7681 202.634 46.3354C202.662 46.3066 202.699 46.2896 202.739 46.2882C202.78 46.2867 202.819 46.3009 202.848 46.3276C202.877 46.3543 202.895 46.3913 202.896 46.4305C202.898 46.4697 202.883 46.5079 202.856 46.5367C202.343 47.0133 201.721 47.3638 201.042 47.559C200.363 47.7542 199.647 47.7887 198.951 47.6594Z"
          fill="#263238"/>
    <path d="M205.762 39.9406C205.716 39.9297 205.673 39.9077 205.637 39.8767C205.601 39.8456 205.573 39.8064 205.556 39.7625C205.431 39.4128 205.222 39.0974 204.946 38.8428C204.671 38.5882 204.337 38.4018 203.972 38.2991C203.893 38.2824 203.823 38.2355 203.779 38.1688C203.734 38.1021 203.718 38.0209 203.735 37.9429C203.752 37.8646 203.8 37.7959 203.868 37.7511C203.935 37.7064 204.019 37.6891 204.099 37.7029C204.572 37.8164 205.008 38.0428 205.368 38.3617C205.729 38.6807 206.003 39.0822 206.166 39.5303C206.193 39.6064 206.189 39.6895 206.155 39.7628C206.121 39.8361 206.06 39.8941 205.984 39.9252C205.915 39.9563 205.836 39.9618 205.762 39.9406Z"
          fill="#263238"/>
    <path d="M194.635 37.6867C194.59 37.6773 194.549 37.6558 194.516 37.6248C194.461 37.5672 194.43 37.491 194.43 37.4118C194.43 37.3326 194.461 37.2564 194.516 37.1989C194.823 36.8217 195.215 36.5197 195.662 36.3167C196.109 36.1137 196.598 36.0154 197.09 36.0297C197.13 36.0344 197.168 36.0469 197.203 36.0663C197.238 36.0856 197.268 36.1116 197.293 36.1426C197.317 36.1736 197.335 36.209 197.345 36.2468C197.355 36.2846 197.357 36.3239 197.352 36.3626C197.348 36.4024 197.336 36.4409 197.317 36.4761C197.297 36.5113 197.271 36.5424 197.239 36.5676C197.208 36.5928 197.171 36.6116 197.132 36.623C197.093 36.6343 197.052 36.6379 197.011 36.6336C196.622 36.6254 196.236 36.7075 195.885 36.873C195.534 37.0385 195.228 37.2828 194.992 37.586C194.95 37.6364 194.893 37.673 194.83 37.691C194.766 37.709 194.698 37.7075 194.635 37.6867Z"
          fill="#263238"/>
    <path d="M202.548 45.2203C202.391 45.2187 202.235 45.2057 202.08 45.1816C201.709 45.1126 201.356 44.9724 201.04 44.769C200.725 44.5657 200.454 44.3032 200.243 43.9969C199.973 43.6029 199.785 43.1608 199.69 42.6958C199.595 42.2307 199.594 41.752 199.689 41.2868C199.796 40.4397 200.238 39.6673 200.92 39.1348C201.603 38.6023 202.471 38.3519 203.34 38.4373C204.088 38.5791 204.749 39.005 205.177 39.622C205.719 40.4189 205.918 41.3926 205.732 42.3321C205.623 43.0988 205.247 43.8053 204.667 44.3318C204.087 44.8582 203.338 45.1721 202.548 45.2203ZM202.864 38.8012C202.172 38.8491 201.517 39.1297 201.012 39.5954C200.507 40.0611 200.182 40.6833 200.092 41.3565C199.923 42.1925 200.096 43.0603 200.576 43.7723C200.758 44.0352 200.992 44.2602 201.264 44.4342C201.536 44.6083 201.84 44.7281 202.16 44.7867C202.92 44.8541 203.678 44.6277 204.27 44.156C204.862 43.6842 205.242 43.0045 205.328 42.2624C205.495 41.4253 205.319 40.5574 204.837 39.8465C204.655 39.5831 204.421 39.3577 204.149 39.1835C203.877 39.0094 203.572 38.8899 203.253 38.8322C203.124 38.8112 202.995 38.8009 202.864 38.8012Z"
          fill="white"/>
    <path d="M199.886 41.5197C199.853 41.5194 199.821 41.5115 199.792 41.4967C199.763 41.4819 199.738 41.4606 199.719 41.4345C199.591 41.1806 199.371 40.9814 199.103 40.8744C198.835 40.7675 198.536 40.7601 198.262 40.8538C198.211 40.8723 198.155 40.8714 198.106 40.8513C198.056 40.8312 198.015 40.7934 197.993 40.7454C197.971 40.6971 197.97 40.6424 197.989 40.5932C198.008 40.544 198.047 40.5041 198.096 40.4821C198.458 40.3563 198.855 40.3604 199.214 40.4937C199.574 40.627 199.874 40.8808 200.06 41.21C200.074 41.2323 200.084 41.2573 200.089 41.2834C200.094 41.3095 200.093 41.3363 200.087 41.3622C200.082 41.3881 200.07 41.4126 200.055 41.4344C200.039 41.4561 200.019 41.4745 199.996 41.4887C199.964 41.5105 199.925 41.5214 199.886 41.5197Z"
          fill="white"/>
    <path d="M195.205 43.5864C195.046 43.5852 194.887 43.5723 194.73 43.5477C194.359 43.4787 194.005 43.3385 193.69 43.1351C193.374 42.9318 193.103 42.6694 192.892 42.363C192.35 41.566 192.151 40.5924 192.338 39.6529C192.445 38.8064 192.888 38.0347 193.57 37.5034C194.253 36.9722 195.121 36.7236 195.989 36.8112C196.36 36.8772 196.714 37.0153 197.03 37.2175C197.346 37.4197 197.616 37.6817 197.827 37.9881C198.369 38.7878 198.568 39.764 198.381 40.706C198.273 41.4706 197.898 42.1752 197.319 42.7002C196.74 43.2252 195.993 43.5383 195.205 43.5864ZM195.514 37.1673C194.821 37.2153 194.167 37.4958 193.662 37.9615C193.157 38.4272 192.832 39.0494 192.742 39.7226C192.657 40.1371 192.657 40.5638 192.741 40.9783C192.826 41.3929 192.993 41.7871 193.233 42.1384C193.415 42.4019 193.649 42.6273 193.921 42.8015C194.193 42.9756 194.497 43.0951 194.817 43.1528C195.578 43.2203 196.335 42.9939 196.927 42.5221C197.519 42.0503 197.899 41.3706 197.985 40.6285C198.155 39.7914 197.978 38.9226 197.494 38.2127C197.124 37.683 196.554 37.3182 195.91 37.1983C195.779 37.1769 195.647 37.1665 195.514 37.1673Z"
          fill="white"/>
    <path d="M227.304 273.007C226.865 273.042 226.427 272.93 226.061 272.69C225.951 272.594 225.867 272.473 225.814 272.338C225.762 272.204 225.743 272.059 225.76 271.916C225.764 271.826 225.791 271.739 225.84 271.663C225.888 271.587 225.956 271.525 226.037 271.482C226.758 271.126 228.833 272.388 229.07 272.527C229.096 272.543 229.117 272.567 229.128 272.595C229.14 272.622 229.142 272.653 229.134 272.682C229.129 272.712 229.116 272.74 229.094 272.763C229.073 272.785 229.045 272.8 229.015 272.806C228.454 272.936 227.88 273.004 227.304 273.007ZM226.37 271.691C226.302 271.69 226.234 271.704 226.172 271.73C226.139 271.747 226.112 271.773 226.094 271.804C226.076 271.836 226.067 271.872 226.069 271.908C226.052 272.008 226.062 272.111 226.096 272.207C226.131 272.303 226.189 272.389 226.267 272.458C226.615 272.752 227.462 272.791 228.579 272.574C227.919 272.144 227.179 271.845 226.401 271.691H226.37Z"
          fill="#407BFF"/>
    <path d="M229.014 272.791C228.991 272.798 228.966 272.798 228.943 272.791C228.278 272.435 227.003 271.041 227.161 270.328C227.187 270.218 227.251 270.119 227.341 270.047C227.431 269.976 227.544 269.936 227.66 269.934C227.777 269.919 227.896 269.928 228.01 269.962C228.123 269.995 228.228 270.051 228.317 270.127C229.054 270.731 229.165 272.566 229.173 272.651C229.168 272.692 229.15 272.729 229.121 272.759C229.093 272.788 229.055 272.807 229.014 272.814V272.791ZM227.763 270.236H227.692C227.494 270.236 227.47 270.344 227.462 270.383C227.375 270.801 228.175 271.862 228.832 272.357C228.804 271.635 228.553 270.939 228.111 270.359C228.014 270.279 227.89 270.235 227.763 270.236Z"
          fill="#407BFF"/>
    <path d="M191.204 273.016C190.646 273.067 190.086 272.928 189.62 272.621C189.516 272.53 189.437 272.415 189.389 272.287C189.342 272.158 189.329 272.02 189.351 271.885C189.356 271.803 189.383 271.724 189.429 271.654C189.475 271.585 189.538 271.529 189.612 271.49C190.404 271.049 193.002 272.35 193.295 272.505C193.325 272.518 193.349 272.541 193.364 272.569C193.379 272.598 193.384 272.63 193.379 272.662C193.373 272.693 193.358 272.722 193.334 272.744C193.31 272.766 193.28 272.78 193.248 272.783C192.575 272.923 191.891 273 191.204 273.016ZM190.08 271.692C189.979 271.69 189.88 271.709 189.787 271.746C189.758 271.762 189.733 271.786 189.717 271.815C189.7 271.843 189.691 271.876 189.692 271.908C189.675 271.998 189.683 272.089 189.713 272.175C189.744 272.26 189.796 272.336 189.866 272.396C190.254 272.745 191.323 272.807 192.773 272.567C191.932 272.128 191.022 271.832 190.08 271.692Z"
          fill="#407BFF"/>
    <path d="M193.248 272.791H193.184C192.392 272.442 190.887 271.072 191.022 270.344C191.022 270.181 191.181 269.965 191.608 269.926C191.76 269.908 191.914 269.921 192.06 269.965C192.206 270.009 192.341 270.083 192.456 270.181C193.248 270.847 193.398 272.566 193.406 272.636C193.407 272.662 193.401 272.688 193.39 272.713C193.379 272.737 193.363 272.758 193.343 272.775C193.313 272.787 193.28 272.792 193.248 272.791ZM191.703 270.236H191.608C191.331 270.236 191.307 270.367 191.299 270.406C191.22 270.832 192.25 271.916 193.042 272.388C192.992 271.668 192.716 270.981 192.25 270.421C192.098 270.294 191.903 270.228 191.703 270.236Z"
          fill="#407BFF"/>
    <path d="M211.464 60.5908L218.988 61.4735C220.236 61.6184 221.382 62.216 222.201 63.1481C223.019 64.0802 223.45 65.2788 223.407 66.5066C223.027 77.9742 221.475 93.7315 222.718 117.836C223.344 129.993 232.032 196.003 232.032 196.003L214.917 198.938C206.744 173.571 201.017 147.513 197.81 121.103C196.566 109.626 196.523 98.0548 197.683 86.5691L211.464 60.5908Z"
          fill="#407BFF"/>
    <path opacity="0.8"
          d="M211.464 60.5908L218.988 61.4735C220.236 61.6184 221.382 62.216 222.201 63.1481C223.019 64.0802 223.45 65.2788 223.407 66.5066C223.027 77.9742 221.475 93.7315 222.718 117.836C223.344 129.993 232.032 196.003 232.032 196.003L214.917 198.938C206.744 173.571 201.017 147.513 197.81 121.103C196.566 109.626 196.523 98.0548 197.683 86.5691L211.464 60.5908Z"
          fill="white"/>
    <path opacity="0.2"
          d="M217.609 75.2246C217.609 76.9436 218.956 85.6933 222.29 91.733C222.385 87.6136 222.536 83.8505 222.71 80.397L217.609 75.2246Z"
          fill="#407BFF"/>
    <path opacity="0.2"
          d="M185.226 73.6914C184.26 75.4956 181.472 83.1458 180.055 91.5006C180.704 91.0593 181.322 90.6024 181.916 90.1378C184.105 88.3605 186.116 86.3821 187.919 84.2298L188.268 83.8117L185.226 73.6914Z"
          fill="#407BFF"/>
    <path d="M195.57 61.3418L191.127 61.8683C188.997 62.1245 187.03 63.1138 185.579 64.659C184.128 66.2042 183.287 68.2042 183.207 70.3006C182.7 83.1697 181.67 108.877 181.108 117.836C180.316 129.985 180.878 196.003 180.878 196.003L191.546 197.83C191.546 197.83 194.255 161.484 197.843 121.103C198.763 109.118 198.983 97.0918 198.5 85.0823L195.57 61.3418Z"
          fill="#407BFF"/>
    <path opacity="0.8"
          d="M195.57 61.3418L191.127 61.8683C188.997 62.1245 187.03 63.1138 185.579 64.659C184.128 66.2042 183.287 68.2042 183.207 70.3006C182.7 83.1697 181.67 108.877 181.108 117.836C180.316 129.985 180.878 196.003 180.878 196.003L191.546 197.83C191.546 197.83 194.255 161.484 197.843 121.103C198.763 109.118 198.983 97.0918 198.5 85.0823L195.57 61.3418Z"
          fill="white"/>
    <path d="M200.164 64.9112C201.157 66.469 201.955 68.1381 202.54 69.8823C202.54 69.8823 212.939 66.3901 212.567 60.7918C212.567 60.7918 210.983 59.8781 210.032 59.1348C210.024 59.1348 209.557 62.6656 200.164 64.9112Z"
          fill="#F5F5F5"/>
    <path d="M200.163 64.9113C198.977 66.2502 197.984 67.7401 197.208 69.3404C195.93 68.4004 194.987 67.0892 194.517 65.5942C194.046 64.0992 194.07 62.497 194.587 61.0165C195.515 60.6503 196.471 60.3552 197.446 60.1338C197.446 60.1338 196.694 63.7111 200.163 64.9113Z"
          fill="#F5F5F5"/>
    <path opacity="0.2" d="M210.966 121.22L222.885 131.232L214.744 127.337L210.966 121.22Z" fill="#407BFF"/>
    <path d="M222.933 64.4072C223.439 65.0964 223.82 65.6384 224.247 66.2501L225.459 68.0388C226.251 69.2364 227.019 70.4469 227.764 71.6703C229.261 74.1249 230.67 76.6337 231.969 79.2586C233.311 81.9437 234.452 84.7204 235.383 87.567C235.878 89.0885 236.27 90.6406 236.555 92.2129C236.856 93.9154 236.992 95.6422 236.959 97.3698C236.811 100.63 236.168 103.85 235.05 106.925C234.038 109.754 232.787 112.497 231.312 115.125C229.907 117.666 228.36 120.129 226.679 122.504C225.855 123.686 225.005 124.848 224.128 125.988C223.693 126.561 223.241 127.134 222.782 127.7C222.323 128.265 221.887 128.791 221.317 129.442L212.945 122.341C213.262 121.97 213.737 121.443 214.086 120.963L215.258 119.476C216.05 118.47 216.779 117.448 217.499 116.379C218.921 114.314 220.225 112.174 221.404 109.968C222.535 107.859 223.48 105.659 224.231 103.394C224.924 101.397 225.301 99.3079 225.348 97.1994C225.254 95.1454 224.823 93.1194 224.073 91.1985C223.241 88.9521 222.233 86.7723 221.055 84.6788C219.852 82.5107 218.513 80.3581 217.095 78.2597C216.375 77.2144 215.63 76.1768 214.87 75.1625L213.714 73.6525C213.333 73.1725 212.922 72.6304 212.581 72.251L222.933 64.4072Z"
          fill="#407BFF"/>
    <path opacity="0.8"
          d="M222.933 64.4072C223.439 65.0964 223.82 65.6384 224.247 66.2501L225.459 68.0388C226.251 69.2364 227.019 70.4469 227.764 71.6703C229.261 74.1249 230.67 76.6337 231.969 79.2586C233.311 81.9437 234.452 84.7204 235.383 87.567C235.878 89.0885 236.27 90.6406 236.555 92.2129C236.856 93.9154 236.992 95.6422 236.959 97.3698C236.811 100.63 236.168 103.85 235.05 106.925C234.038 109.754 232.787 112.497 231.312 115.125C229.907 117.666 228.36 120.129 226.679 122.504C225.855 123.686 225.005 124.848 224.128 125.988C223.693 126.561 223.241 127.134 222.782 127.7C222.323 128.265 221.887 128.791 221.317 129.442L212.945 122.341C213.262 121.97 213.737 121.443 214.086 120.963L215.258 119.476C216.05 118.47 216.779 117.448 217.499 116.379C218.921 114.314 220.225 112.174 221.404 109.968C222.535 107.859 223.48 105.659 224.231 103.394C224.924 101.397 225.301 99.3079 225.348 97.1994C225.254 95.1454 224.823 93.1194 224.073 91.1985C223.241 88.9521 222.233 86.7723 221.055 84.6788C219.852 82.5107 218.513 80.3581 217.095 78.2597C216.375 77.2144 215.63 76.1768 214.87 75.1625L213.714 73.6525C213.333 73.1725 212.922 72.6304 212.581 72.251L222.933 64.4072Z"
          fill="white"/>
    <path d="M212.257 77.8349C212.001 78.4195 211.545 78.8986 210.967 79.1898C210.389 79.4809 209.725 79.5659 209.089 79.4299C208.8 79.3681 208.528 79.2437 208.294 79.0659C208.06 78.8881 207.869 78.6614 207.736 78.4023C207.603 78.1432 207.531 77.8584 207.526 77.5686C207.52 77.2788 207.581 76.9915 207.703 76.7276C207.959 76.1434 208.416 75.665 208.994 75.3752C209.573 75.0854 210.237 75.0022 210.871 75.1402C211.161 75.201 211.432 75.3245 211.666 75.5015C211.901 75.6785 212.091 75.9046 212.224 76.1631C212.357 76.4216 212.429 76.706 212.435 76.9953C212.441 77.2846 212.38 77.5715 212.257 77.8349Z"
          fill="#263238"/>
    <path opacity="0.2"
          d="M212.257 77.8349C212.001 78.4195 211.545 78.8986 210.967 79.1898C210.389 79.4809 209.725 79.5659 209.089 79.4299C208.8 79.3681 208.528 79.2437 208.294 79.0659C208.06 78.8881 207.869 78.6614 207.736 78.4023C207.603 78.1432 207.531 77.8584 207.526 77.5686C207.52 77.2788 207.581 76.9915 207.703 76.7276C207.959 76.1434 208.416 75.665 208.994 75.3752C209.573 75.0854 210.237 75.0022 210.871 75.1402C211.161 75.201 211.432 75.3245 211.666 75.5015C211.901 75.6785 212.091 75.9046 212.224 76.1631C212.357 76.4216 212.429 76.706 212.435 76.9953C212.441 77.2846 212.38 77.5715 212.257 77.8349Z"
          fill="white"/>
    <path d="M209.652 76.6588C209.587 76.6599 209.524 76.6409 209.47 76.6045C209.405 76.558 209.36 76.488 209.347 76.4098C209.334 76.3315 209.352 76.2513 209.399 76.1864C215.291 68.1723 213.644 61.0486 213.628 60.9789C213.612 60.9386 213.604 60.8953 213.606 60.8519C213.608 60.8084 213.62 60.766 213.64 60.7273C213.66 60.6887 213.689 60.6548 213.724 60.6279C213.759 60.6011 213.799 60.582 213.842 60.5718C213.886 60.5617 213.931 60.5608 213.974 60.5692C214.018 60.5776 214.059 60.5951 214.095 60.6205C214.131 60.6459 214.161 60.6786 214.183 60.7164C214.205 60.7542 214.218 60.7962 214.222 60.8395C214.222 60.9092 215.965 68.2884 209.898 76.5349C209.871 76.5742 209.835 76.6062 209.792 76.6278C209.749 76.6495 209.701 76.6601 209.652 76.6588Z"
          fill="#263238"/>
    <path d="M189.107 72.5931C189.03 72.5916 188.955 72.5624 188.898 72.511C188.842 72.4597 188.806 72.3897 188.798 72.3143C188.157 64.4473 192.418 61.5436 192.6 61.4275C192.668 61.3846 192.75 61.3687 192.829 61.3831C192.909 61.3975 192.98 61.4411 193.027 61.5049C193.073 61.5717 193.089 61.6532 193.072 61.7316C193.056 61.81 193.009 61.8789 192.94 61.923C192.901 61.923 188.798 64.7725 189.416 72.2679C189.42 72.3467 189.393 72.4241 189.34 72.4835C189.286 72.5428 189.211 72.5794 189.131 72.5854L189.107 72.5931Z"
          fill="#263238"/>
    <path d="M211.393 77.6258C211.136 78.2095 210.68 78.6877 210.102 78.9787C209.524 79.2696 208.861 79.3552 208.225 79.2209C207.935 79.1603 207.662 79.0367 207.427 78.8592C207.192 78.6817 207.001 78.4548 206.868 78.1953C206.735 77.9358 206.663 77.6504 206.658 77.3601C206.653 77.0699 206.715 76.7822 206.839 76.5185C207.102 75.9415 207.562 75.4716 208.14 75.1891C208.717 74.9067 209.378 74.8292 210.007 74.9699C210.291 75.0332 210.557 75.1566 210.786 75.3314C211.016 75.5061 211.203 75.728 211.335 75.9812C211.467 76.2345 211.541 76.513 211.551 76.7972C211.561 77.0813 211.507 77.3642 211.393 77.6258Z"
          fill="#263238"/>
    <path opacity="0.4"
          d="M211.393 77.6258C211.136 78.2095 210.68 78.6877 210.102 78.9787C209.524 79.2696 208.861 79.3552 208.225 79.2209C207.935 79.1603 207.662 79.0367 207.427 78.8592C207.192 78.6817 207.001 78.4548 206.868 78.1953C206.735 77.9358 206.663 77.6504 206.658 77.3601C206.653 77.0699 206.715 76.7822 206.839 76.5185C207.102 75.9415 207.562 75.4716 208.14 75.1891C208.717 74.9067 209.378 74.8292 210.007 74.9699C210.291 75.0332 210.557 75.1566 210.786 75.3314C211.016 75.5061 211.203 75.728 211.335 75.9812C211.467 76.2345 211.541 76.513 211.551 76.7972C211.561 77.0813 211.507 77.3642 211.393 77.6258Z"
          fill="white"/>
    <path opacity="0.4"
          d="M210.064 77.2067C209.928 77.5143 209.687 77.7661 209.382 77.9187C209.077 78.0714 208.727 78.1153 208.393 78.0429C208.241 78.0102 208.099 77.9449 207.976 77.8516C207.853 77.7584 207.753 77.6396 207.684 77.5039C207.614 77.3681 207.576 77.2189 207.573 77.0671C207.569 76.9152 207.6 76.7645 207.664 76.6259C207.801 76.3192 208.042 76.0683 208.347 75.9159C208.651 75.7634 209.001 75.7188 209.335 75.7897C209.487 75.8224 209.629 75.8877 209.752 75.981C209.875 76.0742 209.974 76.193 210.044 76.3287C210.114 76.4644 210.152 76.6137 210.155 76.7655C210.159 76.9174 210.128 77.0681 210.064 77.2067Z"
          fill="white"/>
    <path d="M191.514 90.8977C191.433 90.8957 191.357 90.863 191.301 90.8066C191.244 90.7501 191.213 90.6745 191.213 90.5957C191.212 90.5564 191.219 90.5173 191.233 90.4807C191.248 90.4441 191.27 90.4108 191.298 90.3826C191.326 90.3545 191.36 90.3321 191.397 90.3168C191.434 90.3016 191.474 90.2937 191.514 90.2937C192.095 90.2771 192.65 90.0527 193.073 89.6632C193.496 89.2736 193.759 88.7459 193.811 88.1799L194.397 78.1138C194.446 77.4076 194.345 76.6991 194.101 76.0328C193.857 75.3665 193.474 74.7568 192.977 74.242C192.48 73.7272 191.88 73.3184 191.214 73.0412C190.548 72.7641 189.83 72.6246 189.106 72.6316C187.583 72.6496 186.123 73.2277 185.016 74.2508C183.91 75.2738 183.238 76.6669 183.134 78.1525L182.54 88.2186C182.519 88.4875 182.556 88.7578 182.648 89.012C182.74 89.2663 182.886 89.4989 183.075 89.695C183.264 89.8911 183.494 90.0464 183.748 90.1508C184.002 90.2553 184.276 90.3066 184.552 90.3015C184.634 90.3015 184.713 90.3333 184.771 90.3899C184.828 90.4466 184.861 90.5234 184.861 90.6035C184.859 90.6829 184.826 90.7586 184.768 90.8148C184.711 90.871 184.633 90.9035 184.552 90.9054C184.193 90.9084 183.838 90.8388 183.508 90.7012C183.178 90.5637 182.881 90.3609 182.635 90.1058C182.389 89.8507 182.199 89.5486 182.078 89.2185C181.957 88.8885 181.907 88.5375 181.931 88.1876L182.525 78.1215C182.638 76.4839 183.378 74.9481 184.598 73.8202C185.818 72.6923 187.427 72.055 189.106 72.0354C189.914 72.0282 190.715 72.1845 191.459 72.4944C192.202 72.8044 192.872 73.2613 193.426 73.8365C193.98 74.4117 194.407 75.0928 194.679 75.8368C194.951 76.5809 195.062 77.3719 195.007 78.1602L194.42 88.2263C194.367 88.9468 194.038 89.6213 193.5 90.1161C192.962 90.6109 192.253 90.8899 191.514 90.8977Z"
          fill="#263238"/>
    <path d="M185.06 90.5956C185.06 91.0757 184.783 91.4706 184.505 91.4706C184.228 91.4706 184.014 91.0757 184.046 90.5956C184.078 90.1155 184.323 89.7129 184.608 89.7129C184.894 89.7129 185.092 90.1078 185.06 90.5956Z"
          fill="#263238"/>
    <path d="M192.029 90.5956C192.029 91.0757 191.752 91.4706 191.466 91.4706C191.181 91.4706 190.975 91.0757 191.007 90.5956C191.039 90.1155 191.284 89.7129 191.569 89.7129C191.855 89.7129 192.053 90.1078 192.029 90.5956Z"
          fill="#263238"/>
    <path d="M128.258 29.4237L127.695 29.0288C129.35 26.813 131.677 25.1633 134.346 24.314C137.015 23.4647 139.889 23.459 142.561 24.2978L142.347 24.9482C139.815 24.1548 137.092 24.1601 134.564 24.9633C132.035 25.7665 129.829 27.327 128.258 29.4237Z"
          fill="#407BFF"/>
    <path d="M125.865 36.3922H125.168C125.204 35.1555 125.42 33.93 125.809 32.7529L126.475 32.962C126.105 34.0712 125.9 35.2262 125.865 36.3922Z"
          fill="#407BFF"/>
    <path d="M163.096 36.9343C162.488 35.6202 161.613 34.4406 160.524 33.467C159.435 32.4934 158.155 31.7462 156.762 31.2705C155.369 30.7948 153.892 30.6007 152.42 30.6998C150.948 30.7989 149.512 31.1892 148.199 31.847C147.538 30.5869 146.627 29.4681 145.52 28.556C144.412 27.644 143.129 26.9571 141.746 26.5353C140.364 26.1136 138.909 25.9655 137.467 26.0998C136.025 26.234 134.625 26.6479 133.349 27.3173C128.066 30.0893 126.221 36.6555 128.969 41.8821L136.097 55.4869C136.443 56.149 136.919 56.7379 137.499 57.2199C138.078 57.7018 138.749 58.0672 139.473 58.2952C140.197 58.5232 140.96 58.6094 141.718 58.5487C142.476 58.4879 143.214 58.2816 143.89 57.9414L157.861 50.9726C160.409 49.7359 162.374 47.5891 163.348 44.9761C164.322 42.3632 164.232 39.4841 163.096 36.9343Z"
          fill="#407BFF"/>
</svg>
